<svg xmlns="http://www.w3.org/2000/svg" viewBox="0 0 737.47 679.77"><defs><style>.cls-1{fill:none;stroke-width:12px;}.cls-1,.cls-2,.cls-3,.cls-4{stroke:#333;}.cls-1,.cls-2,.cls-3,.cls-4,.cls-5{stroke-linecap:round;stroke-miterlimit:10;}.cls-2,.cls-3,.cls-7{fill:#333;}.cls-2,.cls-4,.cls-5{stroke-width:8px;}.cls-3{stroke-width:11px;}.cls-4,.cls-8{fill:#fff;}.cls-5{fill:#ea3800;stroke:#ea3800;}.cls-6{fill:#ccc;}</style></defs><title>gangster.css</title><g id="Camada_2" data-name="Camada 2"><g id="Camada_1-2" data-name="Camada 1"><path class="cls-1" d="M520.47,484.77v150.5a38.61,38.61,0,0,1-38.5,38.5H222a38.61,38.61,0,0,1-38.5-38.5l1-150.5,38,47c-36-40-77-95.74-76-156.48,1.87-113.23,95.78-204.14,209-202.5,112.37,1.63,203,93.22,203,206,0,59.3-38.89,115.41-79,153"/><path class="cls-2" d="M412.27,130.3,363.11,23.76A34,34,0,0,0,318,7.14L43.85,133.65a34,34,0,0,0-16.62,45.11L76.39,285.3a34,34,0,0,1-10.12,41.17c-45,34.6-68.8,64.83-60.71,82.36,16,34.76,151.41,6.46,302.37-63.2S568.26,191.31,552.22,156.55c-8.09-17.53-46.55-19-102.06-7.24A34,34,0,0,1,412.27,130.3Z"/><path class="cls-3" d="M185.69,632.76c155.78,21,271.81-131.21,333.78,0"/><polygon class="cls-4" points="424.89 603.17 610.39 554.1 622.86 590.07 430.73 620.58 424.89 603.17"/><polygon class="cls-5" points="611.47 553.77 637.47 546.77 650.47 585.77 624.47 589.77 611.47 553.77"/><path class="cls-5" d="M920.47,501.77"/><path class="cls-6" d="M616.47,537.77c-9.82-10.1,54.72-58.94,58-141,1.48-36.92-10-67.05-21-96-29.68-78-60.89-79.74-60-119,1.42-63,82.87-108.57,114-126,3.58-2,29-11,30-10,0,0-84,67.28-82,142,.49,18.14,6.2,26.48,18,54,30.31,70.72,69.81,162.88,42,227C692.06,522.75,625.28,546.83,616.47,537.77Z"/><path class="cls-7" d="M321,422.46a63,63,0,0,0-124.76,17.66c4.88,34.45,18.67-9.86,73.92,37C325.29,523.87,325.91,456.91,321,422.46ZM290,473.27a25,25,0,1,1,25-25A25,25,0,0,1,290,473.27Z"/><circle class="cls-8" cx="289.97" cy="448.27" r="25"/><path class="cls-7" d="M456.76,372.92a63,63,0,0,0-71.21,53.55c-4.88,34.45-4.26,101.4,50.84,54.67a127.93,127.93,0,0,1,22.39-15.62A25,25,0,1,1,492.85,458c10.53.95,15.07,3,17.46-13.9A63,63,0,0,0,456.76,372.92Z"/><path class="cls-8" d="M472,420.27a25,25,0,1,0,25,25A25,25,0,0,0,472,420.27Z"/><path class="cls-7" d="M379.47,542.77c0,17.12-10.75-8-24-8s-24,25.12-24,8,10.75-66,24-66S379.47,525.65,379.47,542.77Z"/></g></g></svg>