<svg xmlns="http://www.w3.org/2000/svg" viewBox="0 0 418.67 218.81">
    <defs>
        <style>
            .cls-1{fill:#ffbf1c;}.cls-2,.cls-4{fill:#093287;}.cls-2{stroke:#093287;stroke-miterlimit:10;}.cls-3{fill:#fff;}
        </style>
    </defs>
    <title>logo</title>
    <g id="Camada_2" data-name="Camada 2">
        <g id="Camada_2-2" data-name="Camada 2">
            <path class="cls-1"
                  d="M151,62.1l53.67,14,6.75,27.33L231,85.1l32.83-8.33,51.45,2.14,62.48,4.53,12.82,25.25s-11.51,16-.25,17.78c12.67,2-22.69,48.82-22.69,48.82l-65.18,4.82L289.1,161.47,272,175.77,231.1,169,201,183.61H128.37L151,62.1m0-18a18,18,0,0,0-17.7,14.7L110.67,180.3a18,18,0,0,0,17.69,21.3H201a18,18,0,0,0,7.87-1.81l24.9-12.11,35.28,5.85a18,18,0,0,0,14.5-4l2.2-1.85,2.08,2.89a18,18,0,0,0,14.61,7.49q.66,0,1.33,0L369,193.23a18,18,0,0,0,13-7.11c.31-.41,7.71-10.24,14.76-21.38,13.42-21.2,16.86-32.93,12.67-43.25a20.92,20.92,0,0,0-2.74-4.81,18,18,0,0,0-.07-16.15L393.85,75.28a18,18,0,0,0-14.75-9.8L316.63,61l-.55,0-51.45-2.14-.75,0a18,18,0,0,0-4.43.55l-32.83,8.33a18,18,0,0,0-5.06,2.15,18,18,0,0,0-12.32-11.12l-53.67-14A18,18,0,0,0,151,44.1Z"></path>
            <path class="cls-1"
                  d="M184.38,58.35a2.56,2.56,0,0,1,2.38,1.44,9.15,9.15,0,0,1,.72,3.53l.22,1.73q.5,2.66,1.3,5.83a112.7,112.7,0,0,0,3.53,12q.57-1.73.72-2.09,2-5.9,3.64-9.79a38.48,38.48,0,0,1,3.92-7.2,13.52,13.52,0,0,1,2.45-2.63A4.33,4.33,0,0,1,206,60a2.43,2.43,0,0,1,2.2,1,5.54,5.54,0,0,1,.86,2.09q.18,1,.4,3.49.29,3.24.29,7.49,0,3.1-.29,9.43-.07,1.3-.14,3.24t-.07,4.54l-.07,4.9q0,2.38.14,7l-.07,2.3q0,3.31,1,4.18a2.44,2.44,0,0,1,.86,2.09,6.55,6.55,0,0,1-.94,3.13,9,9,0,0,1-2.38,2.81,4.62,4.62,0,0,1-2.81,1.12q-3,0-3.89-5.54a32.22,32.22,0,0,1-.29-4.54q0-1.3.14-4l.07-4q0-3.17.14-9.5t.22-12.74q-1.8,4.82-4.54,13.25a29.56,29.56,0,0,1-1.58,4,8.49,8.49,0,0,1-2.3,2.81,4.46,4.46,0,0,1-2.88,1.22q-2.74,0-4.54-3.67a48.79,48.79,0,0,1-3.1-8.28l-.65,5.33q-.94,7.2-1.69,11.52a60.15,60.15,0,0,1-2.2,8.64,26.25,26.25,0,0,1-2.48,5.51,4.17,4.17,0,0,1-3.64,2.27,2.26,2.26,0,0,1-2.52-2.59,9.5,9.5,0,0,1,.93-3.78.22.22,0,0,0,0-.08l0-.11.07-.14-.07.14-.08.18a.09.09,0,0,1-.07,0l.43-1.37a43.28,43.28,0,0,0,1.15-5.11q1.08-5.47,2-12.31l1.73-12.6q.79-6.77,1.73-13a43,43,0,0,1,1.12-5.8,10.94,10.94,0,0,1,2.27-4.07,6.53,6.53,0,0,1,1.84-1.51,4.11,4.11,0,0,1,2-.58m0-18a21.89,21.89,0,0,0-10.68,2.82,24.5,24.5,0,0,0-6.86,5.62A28.83,28.83,0,0,0,161,59.53a59.34,59.34,0,0,0-1.64,8.22c-.64,4.27-1.23,8.74-1.77,13.32l-1.7,12.42c-.58,4.2-1.2,8-1.84,11.27q0,.23-.08.46a26.44,26.44,0,0,1-.62,2.87l-.39,1.22,0,.06a26.49,26.49,0,0,0-1.68,9.1,20.11,20.11,0,0,0,20.52,20.59,21.8,21.8,0,0,0,17.75-9A21,21,0,0,0,205,136.83a22.48,22.48,0,0,0,13.83-4.89,27,27,0,0,0,7.1-8.32,24.3,24.3,0,0,0,3.18-11.84,21.18,21.18,0,0,0-1.8-8.63q0-.25,0-.51c-.11-3.39-.13-5.28-.13-6.29l.07-4.76q0-.13,0-.26c0-1.49,0-2.79.06-3.87s.08-2.12.13-2.89v-.21c.21-4.57.31-7.92.31-10.24,0-3.33-.12-6.38-.36-9.07-.19-2.2-.37-3.72-.58-4.95a23.47,23.47,0,0,0-3.55-8.91A20.5,20.5,0,0,0,206,42a21.6,21.6,0,0,0-9.51,2.21,20.49,20.49,0,0,0-12.09-3.86Z"></path>
            <path class="cls-1"
                  d="M236.94,72.82q2,0,2.23,1.51l1,6.26L241.73,87q1.55,6.44,3.78,14.8,2.09,7.92,2.74,10.51a2.22,2.22,0,0,1,.07.65,3.58,3.58,0,0,1-1.94,3,7.31,7.31,0,0,1-4,1.26,3.6,3.6,0,0,1-2.66-.94q-2.09-2.23-4.39-4.25t-6-5l-2.38-1.94q-3,6.48-4.68,9.58a4.83,4.83,0,0,1-2.63,2,10.12,10.12,0,0,1-3.92.9q-2,0-2-1.3a2.28,2.28,0,0,1,.22-.86q2.16-5.33,5.11-12.24l1.51-3.67-1.8-1.8a1.58,1.58,0,0,1-.5-1.15,3,3,0,0,1,1.58-2.34,8.85,8.85,0,0,1,3.53-1.48q3.46-8.28,6.48-16.85a3.14,3.14,0,0,1,1.84-1.76,10.32,10.32,0,0,1,3.28-1,7.61,7.61,0,0,1,2.09-.36M235.43,101l-.5-2.09q-.5-2-2-8.57l-1.94,5-.58,1.44,5,4.25m1.51-46.22a24.3,24.3,0,0,0-5.79.72A28.28,28.28,0,0,0,223.67,58a21,21,0,0,0-11,12.18c-1.13,3.2-2.32,6.38-3.55,9.53a20.78,20.78,0,0,0-9,16.89,19.68,19.68,0,0,0,.39,3.91c-1.23,2.91-2.35,5.63-3.36,8.1a20.07,20.07,0,0,0-1.57,7.72c0,10.82,8.79,19.3,20,19.3A29.29,29.29,0,0,0,230,131.55a21.91,21.91,0,0,0,12.34,3.69,25.39,25.39,0,0,0,13.83-4.16A21.37,21.37,0,0,0,266.32,113a20.38,20.38,0,0,0-.66-5.2c-.45-1.81-1.33-5.17-2.75-10.54l0-.06c-1.44-5.39-2.68-10.22-3.67-14.35l-1.39-5.78L257,71.57c-1.51-9.87-9.71-16.75-20-16.75Z"></path>
            <path class="cls-1"
                  d="M258,73.18a2.79,2.79,0,0,1,2.16.72q7.85,2.16,16.27,4.75a10,10,0,0,1,1.8-.29,3,3,0,0,1,1.91.54,1.94,1.94,0,0,1,.68,1.62A8.63,8.63,0,0,1,278.91,86a42.06,42.06,0,0,1-5.4,5.51l-1.44,1.3a89.74,89.74,0,0,1-6.7,6,17.26,17.26,0,0,1,9.5,6.55q.29-.72,1.51-3.6a4.7,4.7,0,0,1,2.45-2,8.9,8.9,0,0,1,3.6-.83q2.38,0,2.38,1.51a2.94,2.94,0,0,1-.22,1,81.12,81.12,0,0,0-4.46,13.39,4.84,4.84,0,0,1-2.09,2.66,5.48,5.48,0,0,1-2.2,1.58,7.22,7.22,0,0,1-2.92.65,3.51,3.51,0,0,1-2-.5,1.93,1.93,0,0,1-.83-1.58,16.22,16.22,0,0,0-3.06-8.57,12.5,12.5,0,0,0-7.09-5l-.36,10.44q-.07,1.37-2.27,2.52a9.06,9.06,0,0,1-4.21,1.15,3.29,3.29,0,0,1-1.73-.4,1.37,1.37,0,0,1-.65-1.26l.22-9.94A1.84,1.84,0,0,1,250,105a2.63,2.63,0,0,1,1.08-1.94q.36-13.1.86-26.14A3.35,3.35,0,0,1,254,74.3a8.06,8.06,0,0,1,4-1.12m2.16,22.32q2.16-1.8,2.52-2.16l2.09-1.73a60,60,0,0,0,4.57-4,14.79,14.79,0,0,0,2.7-3.46q-3.89-1-11.52-3.31l-.36,14.62M258,55.18a25.88,25.88,0,0,0-12.83,3.44c-6.78,3.82-10.86,10.19-11.19,17.47v.14c-.28,7.25-.53,14.6-.75,21.91A19.9,19.9,0,0,0,232,105a19.62,19.62,0,0,0,.84,5.71l-.12,5.34q0,.2,0,.39A19.31,19.31,0,0,0,242,133.07a21.25,21.25,0,0,0,11.11,3,26,26,0,0,0,8.57-1.47,21.55,21.55,0,0,0,11.23,3.06,25.13,25.13,0,0,0,10.15-2.17,23.93,23.93,0,0,0,7.18-4.78,22.16,22.16,0,0,0,7.33-11.58l.07-.27a63.52,63.52,0,0,1,3.49-10.41q.16-.38.31-.77a20.83,20.83,0,0,0,1.36-7.31,19.09,19.09,0,0,0-4.88-12.95,26.41,26.41,0,0,0,.92-6.93,19.9,19.9,0,0,0-7.53-15.75,20.82,20.82,0,0,0-13.06-4.41h-.07c-3.71-1.12-7.37-2.18-10.92-3.18a21.63,21.63,0,0,0-9.25-2Z"></path>
            <path class="cls-1"
                  d="M293.1,73.18a2.79,2.79,0,0,1,2.16.72q7.85,2.16,16.27,4.75a10,10,0,0,1,1.8-.29,3,3,0,0,1,1.91.54,1.94,1.94,0,0,1,.68,1.62A8.63,8.63,0,0,1,314,86a42.06,42.06,0,0,1-5.4,5.51l-1.44,1.3a89.74,89.74,0,0,1-6.7,6,17.26,17.26,0,0,1,9.5,6.55q.29-.72,1.51-3.6a4.7,4.7,0,0,1,2.45-2,8.9,8.9,0,0,1,3.6-.83q2.38,0,2.38,1.51a2.94,2.94,0,0,1-.22,1,81.12,81.12,0,0,0-4.46,13.39,4.84,4.84,0,0,1-2.09,2.66,5.48,5.48,0,0,1-2.2,1.58,7.22,7.22,0,0,1-2.92.65,3.51,3.51,0,0,1-2-.5,1.93,1.93,0,0,1-.83-1.58,16.22,16.22,0,0,0-3.06-8.57,12.5,12.5,0,0,0-7.09-5l-.36,10.44q-.07,1.37-2.27,2.52a9.06,9.06,0,0,1-4.21,1.15,3.29,3.29,0,0,1-1.73-.4,1.37,1.37,0,0,1-.65-1.26l.22-9.94a1.84,1.84,0,0,1-.94-1.51,2.63,2.63,0,0,1,1.08-1.94q.36-13.1.86-26.14a3.35,3.35,0,0,1,2.05-2.63,8.06,8.06,0,0,1,4-1.12m2.16,22.32q2.16-1.8,2.52-2.16l2.09-1.73a60,60,0,0,0,4.57-4,14.79,14.79,0,0,0,2.7-3.46q-3.89-1-11.52-3.31l-.36,14.62M293.1,55.18a25.88,25.88,0,0,0-12.83,3.44c-6.78,3.82-10.86,10.19-11.19,17.47v.14c-.28,7.25-.53,14.6-.75,21.91a19.9,19.9,0,0,0-1.21,6.87,19.62,19.62,0,0,0,.84,5.71l-.12,5.34q0,.2,0,.39a19.31,19.31,0,0,0,9.27,16.62,21.25,21.25,0,0,0,11.11,3,26,26,0,0,0,8.57-1.47A21.55,21.55,0,0,0,308,137.69a25.13,25.13,0,0,0,10.15-2.17,23.93,23.93,0,0,0,7.18-4.78,22.16,22.16,0,0,0,7.33-11.58l.07-.27a63.52,63.52,0,0,1,3.49-10.41q.16-.38.31-.77a20.84,20.84,0,0,0,1.36-7.31A19.09,19.09,0,0,0,333,87.45a26.4,26.4,0,0,0,.92-6.93,19.9,19.9,0,0,0-7.53-15.75,20.82,20.82,0,0,0-13.06-4.41h-.07c-3.71-1.12-7.37-2.18-10.92-3.18a21.63,21.63,0,0,0-9.25-2Z"></path>
            <path class="cls-1"
                  d="M330,60.15q2.52,0,2.23,1.8t-.79,5.4a3.71,3.71,0,0,1-2.23,2.59,8.35,8.35,0,0,1-4,1.08,3,3,0,0,1-1.84-.5,1.47,1.47,0,0,1-.54-1.51l.86-5.33q.14-1.37,2.23-2.45a8.77,8.77,0,0,1,4-1.08m-.86,14.69a3.39,3.39,0,0,1,1.87.47,1.49,1.49,0,0,1,.65,1.48l-2.09,39.1q-.07,1.51-2.09,2.63a8.25,8.25,0,0,1-4,1.12q-2.66,0-2.59-2.09l2.16-39q.07-1.44,2.09-2.56a8.26,8.26,0,0,1,4-1.12M330,42.15a26.59,26.59,0,0,0-12.3,3.09c-6.56,3.39-10.81,9.12-11.77,15.8l-.82,5.08,0,.32a19.86,19.86,0,0,0,.43,7.82,20.35,20.35,0,0,0-.44,3.29l-2.16,39q0,.19,0,.38a19.76,19.76,0,0,0,5.51,14.56,20.68,20.68,0,0,0,15.07,6.15,26.07,26.07,0,0,0,12.76-3.37c6.84-3.78,11-10.15,11.34-17.46l2.08-39a20.12,20.12,0,0,0-.64-6.43q.14-.64.24-1.29c.4-2.51.68-4.42.85-5.82a19.41,19.41,0,0,0-4.41-15.21A20.09,20.09,0,0,0,330,42.15Z"></path>
            <path class="cls-1"
                  d="M342.13,68.93a2.57,2.57,0,0,1,1.87.58,2,2,0,0,1,1.22,1.15,23.16,23.16,0,0,0,5,8A10.07,10.07,0,0,0,357.68,82a14.58,14.58,0,0,0,2.38-.29,12.37,12.37,0,0,1,1.3-.14,2.71,2.71,0,0,1,1.84.54,1.87,1.87,0,0,1,.61,1.48,3.18,3.18,0,0,1-.83,2,4.53,4.53,0,0,1-2.2,1.44,18.17,18.17,0,0,1-5.9,1,16.48,16.48,0,0,1-6.77-1.44q-.15,4-.36,6l-.5,4.54q2.81-.5,5.62-.86l1-.07q2.88,0,2.88,1.94a2.84,2.84,0,0,1-1.44,2.3,7.61,7.61,0,0,1-3,1.3q-2.23.43-6.12.94-.79,3.53-1.73,6.62a28,28,0,0,1,9.65-1.73,30.71,30.71,0,0,1,10.8,2,1.33,1.33,0,0,1,1.08,1.3,3.8,3.8,0,0,1-1.37,2.52,5.26,5.26,0,0,1-3.89,1.51,5.72,5.72,0,0,1-1.94-.29,22.87,22.87,0,0,0-6.91-1.22,21,21,0,0,0-11,3.46,7.93,7.93,0,0,1-2.27,1,8.76,8.76,0,0,1-2.48.4,3.29,3.29,0,0,1-1.73-.4,1.37,1.37,0,0,1-.65-1.26,2.32,2.32,0,0,1,.14-.86q2.09-5.83,3.35-10.51a55.65,55.65,0,0,0,1.69-9.5q.65-6.48.65-9.5,0-8-3.1-12.24a1.73,1.73,0,0,1-.36-1.15q0-1.44,2-2.7a7.46,7.46,0,0,1,4-1.26m0-18a25.53,25.53,0,0,0-13.5,4c-6.66,4.17-10.48,10.71-10.48,18a19.91,19.91,0,0,0,3.28,11,13.48,13.48,0,0,1,.17,2.39c0,.64-.05,2.67-.56,7.71l0,.19a37.86,37.86,0,0,1-1.15,6.44c-.7,2.59-1.66,5.62-2.86,9a20.28,20.28,0,0,0-1.25,7.07,19.31,19.31,0,0,0,9.28,16.63,21.27,21.27,0,0,0,11.1,3,26.75,26.75,0,0,0,7.61-1.14,26.1,26.1,0,0,0,6.78-3.09,5.94,5.94,0,0,1,1.41-.65,8.72,8.72,0,0,1,1.25.31,23.79,23.79,0,0,0,7.58,1.19,23.3,23.3,0,0,0,16.62-6.78A21.23,21.23,0,0,0,384,110.91a19,19,0,0,0-6.63-14.57,20.92,20.92,0,0,0,4.4-12.79,20,20,0,0,0-6.69-15,20.33,20.33,0,0,0-13.35-5,20,20,0,0,0-8.35-9.41,20.93,20.93,0,0,0-11.28-3.19Z"></path>
            <path class="cls-1"
                  d="M374.82,70.3a4.2,4.2,0,0,1,2.2.5,1.72,1.72,0,0,1,.83,1.58v.72q8.71,12,19,14.69a4,4,0,0,1,1.37.65,1.11,1.11,0,0,1,.5.94,2,2,0,0,1-.29,1,46.37,46.37,0,0,1-10.08,13,112.59,112.59,0,0,1-15.19,11.38,12.12,12.12,0,0,1-1.94.9,6,6,0,0,1-2.09.4,3.09,3.09,0,0,1-1.87-.58,1.92,1.92,0,0,1-.86-1.58,2.64,2.64,0,0,1,1.37-2.16,1.1,1.1,0,0,0,.29-.22,1.68,1.68,0,0,1,.43-.29l.29-17.86q.14-5.83.29-17.78a1.23,1.23,0,0,1-.07-.5,4.3,4.3,0,0,1,.14-.72v-.79A3,3,0,0,1,371,71.27a7.91,7.91,0,0,1,3.82-1m2.59,34.49a52.12,52.12,0,0,0,11.88-12.38,30.9,30.9,0,0,1-11.59-7q-.15,6.55-.29,19.37M374.82,52.3a25.76,25.76,0,0,0-12.37,3.14,20.91,20.91,0,0,0-11.29,17.18,18.58,18.58,0,0,0-.17,2.51q0,.78.06,1.55c-.09,7.25-.18,12.73-.27,16.29q0,.08,0,.15l-.19,11.67a20,20,0,0,0,5.87,25.13l.19.14a21,21,0,0,0,12.48,4,24,24,0,0,0,8.29-1.5,30.13,30.13,0,0,0,4.81-2.25l.61-.37a131,131,0,0,0,17.62-13.23,64.53,64.53,0,0,0,13.86-17.88,20.06,20.06,0,0,0,2.41-9.49,19.2,19.2,0,0,0-6.93-14.72,21.45,21.45,0,0,0-7.24-3.93q-.59-.2-1.2-.36c-2-.52-4.37-2.31-6.81-5.12a19.59,19.59,0,0,0-8.16-9.81,21.9,21.9,0,0,0-11.57-3.14Z"></path>
            <path class="cls-1"
                  d="M199.9,128.86a8.1,8.1,0,0,1,4.09,1.05,7.54,7.54,0,0,1,3,3.3,14.09,14.09,0,0,1,1.5,6.52A21.15,21.15,0,0,1,207.1,147a31.54,31.54,0,0,1-3.6,7,20.43,20.43,0,0,1-2.89,3.34,5.16,5.16,0,0,1-3.34,1.76,1.65,1.65,0,0,1-1.42-.75,2.19,2.19,0,0,1-.53-1.5q0-1.8,2.47-4.8l1.05-1.5a7,7,0,0,0,1-3.6,7.45,7.45,0,0,0-1.69-4.8,5.09,5.09,0,0,0-4.09-2.1,5.79,5.79,0,0,0-3.45,1.27q-3.82,2.78-6.45,8.74a54.87,54.87,0,0,0-3.75,11.89,19.35,19.35,0,0,0-.37,3.45,10.62,10.62,0,0,0,2.77,7.69q2.64,2.74,7.51,2.74h.51a6.78,6.78,0,0,0-1-2.25,3.13,3.13,0,0,0-1.87-.83l-.25,0a5.09,5.09,0,0,0-1.13.17,6.62,6.62,0,0,1-1.39.22q-2.47-.23-2.47-2.17a7.61,7.61,0,0,1,.38-2,8,8,0,0,1,2.44-3.86,8.69,8.69,0,0,1,3.52-1.76,39,39,0,0,1,4.91-.75l2.25-.3q.52-.07,2.55-.52.45-.07,3-.6a23.07,23.07,0,0,1,4.69-.52q4.35,0,4.95,2.77a9.09,9.09,0,0,1,.15,1.28,15.21,15.21,0,0,1-.53,3.6q-.3,1.88-.37,2.48a61.49,61.49,0,0,0-.45,7.5q0,2,.07,2.85.07,1.05.38,3.15A24,24,0,0,1,211,188a7.65,7.65,0,0,1-1,4,13,13,0,0,1-2.47,3,4.62,4.62,0,0,1-3.08,1.46q-3.37,0-3.37-7.87l.08-3.45a92.93,92.93,0,0,1,1.5-13.65,3.56,3.56,0,0,0-2,.45,3.16,3.16,0,0,0-.6,1.58,6.18,6.18,0,0,1-.3,1.8,17.33,17.33,0,0,1-2.7,5.78,16.26,16.26,0,0,1-4.2,4.16,14.77,14.77,0,0,1-5.4,2.29,19.71,19.71,0,0,1-3.52.38,13.93,13.93,0,0,1-9.37-3.34,12.6,12.6,0,0,1-4.35-9,16.66,16.66,0,0,1-.07-1.87,35.75,35.75,0,0,1,1.65-10.39A88.76,88.76,0,0,1,176.13,152q5.7-12.37,13.35-18.75a20.65,20.65,0,0,1,5.1-3.15,13.41,13.41,0,0,1,5.32-1.2m0-18a31.32,31.32,0,0,0-12.46,2.68,38.74,38.74,0,0,0-9.5,5.86c-7.14,6-13.26,14.38-18.16,25a107.06,107.06,0,0,0-5.3,13.74,53.85,53.85,0,0,0-2.42,15.61,34.59,34.59,0,0,0,.16,3.64,30.42,30.42,0,0,0,10.56,20.88A31.94,31.94,0,0,0,183.85,206a33.54,33.54,0,0,0,3.76-.22,20.36,20.36,0,0,0,16.79,8.77,22.21,22.21,0,0,0,15.32-6.27,31.07,31.07,0,0,0,5.75-7.11A25.8,25.8,0,0,0,229,188a38.25,38.25,0,0,0-.67-6.57c-.16-1.17-.2-1.59-.2-1.6v-.14c0-.11,0-.52,0-1.44a43.73,43.73,0,0,1,.32-5.31s0-.28.18-1.17a31.76,31.76,0,0,0,.86-7.1,25.16,25.16,0,0,0-.39-4.22q-.07-.43-.17-.86a21.56,21.56,0,0,0-4.12-8.7,38.52,38.52,0,0,0,1.68-11.12A32,32,0,0,0,223,125.07a25.58,25.58,0,0,0-10.08-10.79,25.94,25.94,0,0,0-13-3.43Z"></path>
            <path class="cls-1"
                  d="M246.55,130.06a2.26,2.26,0,0,1,2.17,1.39,17.4,17.4,0,0,1,1.2,4.09q1.35,7.73,3.75,16.35A138.48,138.48,0,0,0,261,171.31l.83,1.65a28,28,0,0,1,1.57,3,6.39,6.39,0,0,1,.53,2.51,6.49,6.49,0,0,1-1.65,4,10.92,10.92,0,0,1-3.6,3,5.12,5.12,0,0,1-2.55.67,8.32,8.32,0,0,1-4.46-1.39,46.7,46.7,0,0,1-5.29-4q-2.18-1.8-3.3-2.55a25.77,25.77,0,0,0-3.15-1.65,48.54,48.54,0,0,1-6.49-3.75,4.75,4.75,0,0,1-2.29-3.9,5.08,5.08,0,0,1,.53-1.8q-1.43,2.55-4,7.8-3.15,6.38-3.6,7.13a16.25,16.25,0,0,1-2.92,3.64,5.67,5.67,0,0,1-3.75,2,2.16,2.16,0,0,1-1.58-.67,2.25,2.25,0,0,1-.52-1.65q0-3.15,4.8-11.17.3-.6,1-1.72l1.65-3.15q5.1-9.6,7.42-14.47,1.35-2.85,3.9-8.55l2.7-6.08a39.86,39.86,0,0,1,3.3-5.89,11.27,11.27,0,0,1,4.13-3.64,5.16,5.16,0,0,1,2.4-.67m-14.62,36.53q3-4.65,6.83-4.65a7.46,7.46,0,0,1,2.92.6,21.12,21.12,0,0,1,2.7,1.27q-2.25-8.1-3.45-13.8-2.93,5.85-7.72,14.25a25.28,25.28,0,0,1-1.28,2.33m14.63-54.53a22.93,22.93,0,0,0-10.72,2.71,29.14,29.14,0,0,0-10.57,9.3,57,57,0,0,0-4.84,8.56l-.15.32-2.69,6c-1.69,3.77-2.91,6.45-3.73,8.18-1.41,3-3.79,7.6-7.06,13.74l0,.09-1.42,2.72c-.38.64-.7,1.21-1,1.74-5,8.48-7.07,14.28-7.07,19.95a20.05,20.05,0,0,0,20.1,20.33c4.15,0,10.35-1.24,16.36-7.14q1.38-1.35,2.53-2.71a57.75,57.75,0,0,0,5.79,4.22,26.4,26.4,0,0,0,14,4.13A23.25,23.25,0,0,0,267,201.48a28.88,28.88,0,0,0,9.26-7.72A23.84,23.84,0,0,0,279.93,169a43.41,43.41,0,0,0-2.29-4.54l-.48-.95A121.25,121.25,0,0,1,271,146.92c-1.41-5.1-2.53-10-3.32-14.49l-.06-.34a33.94,33.94,0,0,0-2.68-8.52,20.28,20.28,0,0,0-18.36-11.52Z"></path>
            <path class="cls-1"
                  d="M281.2,126.46a2.66,2.66,0,0,1,2.47,1.5,9.52,9.52,0,0,1,.75,3.68l.22,1.8q.52,2.78,1.35,6.08A117.37,117.37,0,0,0,289.68,152q.6-1.8.75-2.17,2.1-6.15,3.79-10.2a40.06,40.06,0,0,1,4.09-7.5,14.06,14.06,0,0,1,2.55-2.74,4.51,4.51,0,0,1,2.85-1.16,2.53,2.53,0,0,1,2.29,1.09,5.79,5.79,0,0,1,.9,2.18q.19,1.09.41,3.64.3,3.38.3,7.8,0,3.23-.3,9.83-.08,1.35-.15,3.38t-.07,4.72l-.08,5.1q0,2.47.15,7.27l-.07,2.4q0,3.45,1,4.35a2.54,2.54,0,0,1,.9,2.17,6.82,6.82,0,0,1-1,3.26,9.41,9.41,0,0,1-2.47,2.92,4.81,4.81,0,0,1-2.93,1.16q-3.15,0-4-5.78a33.6,33.6,0,0,1-.3-4.72q0-1.35.15-4.2l.07-4.2q0-3.3.15-9.9t.22-13.28q-1.87,5-4.72,13.8a30.81,30.81,0,0,1-1.65,4.2,8.85,8.85,0,0,1-2.4,2.92,4.65,4.65,0,0,1-3,1.28q-2.85,0-4.73-3.83a50.92,50.92,0,0,1-3.22-8.62l-.67,5.55q-1,7.5-1.76,12a62.7,62.7,0,0,1-2.29,9,27.37,27.37,0,0,1-2.59,5.74,4.34,4.34,0,0,1-3.79,2.36q-2.63,0-2.62-2.7a9.89,9.89,0,0,1,1-3.93.23.23,0,0,0,0-.08l0-.1.08-.17-.08.17-.08.18a.09.09,0,0,1-.07,0l.45-1.42a45.33,45.33,0,0,0,1.2-5.33q1.13-5.7,2.1-12.83l1.8-13.12q.82-7,1.8-13.57a44.51,44.51,0,0,1,1.16-6,11.4,11.4,0,0,1,2.36-4.24,6.8,6.8,0,0,1,1.91-1.58,4.29,4.29,0,0,1,2.06-.6m0-18a22.06,22.06,0,0,0-10.76,2.84,24.78,24.78,0,0,0-6.93,5.68,29.29,29.29,0,0,0-5.94,10.92,60.82,60.82,0,0,0-1.68,8.46c-.66,4.44-1.28,9.1-1.84,13.86l-1.78,12.95c-.6,4.4-1.25,8.36-1.93,11.78q0,.23-.08.45a28.52,28.52,0,0,1-.67,3.09l-.4,1.27,0,.09a26.86,26.86,0,0,0-1.71,9.23,20.21,20.21,0,0,0,20.63,20.7,22.05,22.05,0,0,0,18.44-9.89,21.07,21.07,0,0,0,16.14,7.56,22.67,22.67,0,0,0,14-4.94,27.34,27.34,0,0,0,7.19-8.43,24.56,24.56,0,0,0,3.22-12,21.29,21.29,0,0,0-1.88-8.82q0-.33,0-.67c-.11-3.55-.14-5.53-.14-6.58l.07-5q0-.13,0-.27c0-1.58,0-2.95.06-4.06s.09-2.22.13-3v-.2c.21-4.73.32-8.21.32-10.64,0-3.46-.12-6.62-.37-9.39-.2-2.26-.39-3.83-.6-5.09a23.75,23.75,0,0,0-3.58-9,20.62,20.62,0,0,0-17.35-9.23,21.79,21.79,0,0,0-10,2.43,20.59,20.59,0,0,0-12.52-4.15Z"></path>
            <path class="cls-1"
                  d="M325.23,131.26a7.29,7.29,0,0,1,3.64,1,41,41,0,0,1,4.46,3.08q1.95,1.5,2.92,2.1,3.52,2.1,5.92,3.23a21.7,21.7,0,0,0,5.1,1.65,13.8,13.8,0,0,0,2.4.23,13,13,0,0,0,2.4-.23,7.9,7.9,0,0,0,1.46-.49,4.55,4.55,0,0,1,1.54-.41,1.4,1.4,0,0,1,.9.3,2,2,0,0,1,.75,1.72,6.17,6.17,0,0,1-.71,2.66,14.27,14.27,0,0,1-1.46,2.44A9.91,9.91,0,0,1,348,152a16.93,16.93,0,0,1-2.78.22,22.14,22.14,0,0,1-7.5-1.31,73.1,73.1,0,0,1-8.4-3.71,97.67,97.67,0,0,1-1.73,12l2.55-.6q4-1,6.49-1.46a25.81,25.81,0,0,1,4.91-.49,12.34,12.34,0,0,1,1.58.08q2.63.23,2.63,2.63a6.49,6.49,0,0,1-.56,2.47,11.92,11.92,0,0,1-1.39,2.48,6.76,6.76,0,0,1-3.67,2.63,23.59,23.59,0,0,1-5.62.67l-2.55.15q-2.7.3-4.12.52a6.17,6.17,0,0,0-1.76.34,1.59,1.59,0,0,0-.6.71,9.25,9.25,0,0,1-.56,1,11.58,11.58,0,0,0-1,2.33q-.45,1.43-.75,2.85-.45,2.1-.75,3a110,110,0,0,1,12.26-1.84,131.65,131.65,0,0,1,13.61-.86,29.07,29.07,0,0,1,4,.22q2.85.38,2.85,3a6.47,6.47,0,0,1-.41,2.14,9,9,0,0,1-1.09,2.14,7.41,7.41,0,0,1-3.26,2.85,14.76,14.76,0,0,1-4.76.9q-5.93.23-8.47.22-7.35.23-10.2.38a43.34,43.34,0,0,0-10.27,1.5,12.36,12.36,0,0,1-2.48.45,1.59,1.59,0,0,1-1.27-.52,2.93,2.93,0,0,1-.45-1.87,8.61,8.61,0,0,1,.56-3q.56-1.54,1.76-4.16a28.94,28.94,0,0,0,1.65-3.75q.15-.52.71-2.1a17.68,17.68,0,0,0,.79-2.85,4.67,4.67,0,0,0,.08-.9,4.89,4.89,0,0,0-.15-1.09,11.31,11.31,0,0,1-.22-1.24,5.89,5.89,0,0,1,.34-2.36,18.32,18.32,0,0,1,1.24-2.66,18.68,18.68,0,0,0,1.5-3.75,67.13,67.13,0,0,0,1.5-9.75l.08-2.33a9,9,0,0,0-.45-3.3,5.33,5.33,0,0,0-1.35-1.8,6.4,6.4,0,0,1-1.2-1.5,3.69,3.69,0,0,1-.37-1.8,6.88,6.88,0,0,1,.64-2.74,11.45,11.45,0,0,1,1.61-2.66,5.08,5.08,0,0,1,4.13-2.25m0-18A23.12,23.12,0,0,0,307,122.34a29.52,29.52,0,0,0-4,6.64,24.76,24.76,0,0,0-2.14,9.93,21.48,21.48,0,0,0,2.46,10.21q.32.62.69,1.22c-.13.93-.36,2.32-.76,4.33l-.13.27a34.93,34.93,0,0,0-2.17,4.86,23.78,23.78,0,0,0-1.33,9.5q0,.16,0,.31c-.13.37-.23.69-.33,1s-.26.62-.57,1.21q-.2.39-.38.79c-1,2.19-1.75,4-2.3,5.46a26.59,26.59,0,0,0-1.66,9.15,20.41,20.41,0,0,0,4.81,13.62,19.61,19.61,0,0,0,14.92,6.78,27.36,27.36,0,0,0,6.85-1l.61-.16a25.53,25.53,0,0,1,6-.81h.25c1.73-.09,4.94-.21,9.55-.35,2,0,4.87-.08,8.86-.24h.23a32.1,32.1,0,0,0,10.65-2.22,25.39,25.39,0,0,0,11.29-9.32,27.08,27.08,0,0,0,3.21-6.31,24.45,24.45,0,0,0,1.45-8.16,20.62,20.62,0,0,0-7.39-16.1,27.12,27.12,0,0,0,2.82-3l.31-.39a31.8,31.8,0,0,0,3.38-5.52,24,24,0,0,0,2.54-10.56,19.8,19.8,0,0,0-8.06-16.21,19.53,19.53,0,0,0-11.59-3.82,20.44,20.44,0,0,0-5.59.8c-.75-.37-1.94-1-3.77-2.08-.16-.11-.59-.42-1.42-1.05a57.86,57.86,0,0,0-6.5-4.43,25.1,25.1,0,0,0-12.58-3.43Z"></path>
            <path class="cls-1"
                  d="M393.63,131.33a4.92,4.92,0,0,1,3.75,1.35,4.26,4.26,0,0,1,1.35,2.92,5.47,5.47,0,0,1-.86,2.85,36.83,36.83,0,0,1-2.74,3.75,22.4,22.4,0,0,0-2.85,4,19,19,0,0,1-2.06,3.53,3.08,3.08,0,0,1-2.44,1.42,3.19,3.19,0,0,1-2-.75,2.71,2.71,0,0,1-1-2.25,5.73,5.73,0,0,1,.49-2.21q.49-1.16,1-2.14c.32-.65.54-1.05.64-1.2q-3.83.68-11.33,2.63-.9.3-3.67,1l9,10.35q11.55,13.13,14.92,17.1.37.45,1.76,2a16.24,16.24,0,0,1,2.25,3,6.07,6.07,0,0,1,.86,3,5.1,5.1,0,0,1-1.35,3.38,5,5,0,0,1-4,2,10.21,10.21,0,0,1-2.33-.3l-1.65-.37a70.27,70.27,0,0,0-13.8-1.2q-6.08,0-12.9.6-.6.07-1.72.15t-2,.08a9.17,9.17,0,0,1-4.31-.86,3.28,3.28,0,0,1-1.61-3.19,9,9,0,0,1,.52-2.89,34.44,34.44,0,0,1,1.58-3.71l.67-1.57a14,14,0,0,1,2.48-4.24A4.94,4.94,0,0,1,364,168a4,4,0,0,1,3.19,1.31,4.74,4.74,0,0,1,1.16,3.26,6,6,0,0,1-.67,2.7q4.72-.3,10.72-.3,3.52,0,5.33.08-6.9-8.7-10.28-13.12l-5.17-6.52a29.55,29.55,0,0,0-2-2.33,46.73,46.73,0,0,1-4.2-5.51,8.76,8.76,0,0,1-1.42-4.69,4.57,4.57,0,0,1,1.61-3.64,10.93,10.93,0,0,1,3.83-2.1,51.85,51.85,0,0,1,5.59-1.39l3.15-.68q5.92-1.5,12.22-2.7.52-.07,2.1-.37a17.85,17.85,0,0,1,4.5-.68m0-18a34.67,34.67,0,0,0-8.41,1.1l-.8.14-.76.13c-4.42.84-8.77,1.8-12.94,2.85l-2.72.58a68.33,68.33,0,0,0-7.45,1.88,28.89,28.89,0,0,0-10.05,5.59,22.45,22.45,0,0,0-7.87,17.28,26.89,26.89,0,0,0,4.15,14.21l.13.21a31.19,31.19,0,0,0-5.81,9.45l-.47,1.09a50.3,50.3,0,0,0-2.21,5.34,27,27,0,0,0-1.49,8.7A21.16,21.16,0,0,0,348.06,201a26.82,26.82,0,0,0,12.79,3c1,0,2.1,0,3.24-.12q1.31-.09,2.33-.2c3.92-.34,7.64-.51,11.08-.51a53.09,53.09,0,0,1,10.17.83l1.17.27a28.17,28.17,0,0,0,6.43.77,23.72,23.72,0,0,0,23.4-23.4,23.85,23.85,0,0,0-3.16-11.76,34.36,34.36,0,0,0-4.73-6.46c-.83-.89-1.14-1.24-1.22-1.33l0-.05c-.79-.93-1.88-2.2-3.29-3.82a38.33,38.33,0,0,0,1.89-3.39c.17-.22.43-.56.83-1l.18-.23a52.72,52.72,0,0,0,4.12-5.73,23.55,23.55,0,0,0,3.46-12.17,22.27,22.27,0,0,0-6.28-15.3,22.84,22.84,0,0,0-16.82-7Z"></path>
        </g>
        <g id="Camada_1-2" data-name="Camada 1">
            <path class="cls-2"
                  d="M391.26,108.65s-11.51,16-.25,17.78c12.67,2-22.69,48.82-22.69,48.82l-65.18,4.82-13.39-18.63-17.06,14.3L231.75,169l-30.06,14.62-54.51-23.14,4.5-98.36,53.67,14,6.75,27.33,19.6-18.33,32.83-8.33L316,78.88l62.48,4.53Z"></path>
            <path class="cls-3"
                  d="M172.43,124a5.21,5.21,0,0,1-5.52-5.59,12,12,0,0,1,.93-4.39q0-.13.07-.26l.43-1.37a40.56,40.56,0,0,0,1.06-4.71c.72-3.64,1.39-7.73,2-12.21l1.73-12.6c.52-4.46,1.11-8.87,1.73-13.07a45.24,45.24,0,0,1,1.2-6.18,14,14,0,0,1,2.87-5.18,9.53,9.53,0,0,1,2.67-2.19,7.08,7.08,0,0,1,3.43-1,5.52,5.52,0,0,1,5,3,11.44,11.44,0,0,1,1.08,4.7l.19,1.54c.32,1.69.74,3.57,1.24,5.57q.42,1.66.81,3.16.73-1.92,1.39-3.51A41.62,41.62,0,0,1,199,62a16.64,16.64,0,0,1,3-3.24A7.26,7.26,0,0,1,206.63,57a5.41,5.41,0,0,1,4.7,2.4,8.54,8.54,0,0,1,1.31,3.22c.14.8.28,2,.43,3.74.2,2.26.3,4.86.3,7.75,0,2.09-.1,5.22-.29,9.57,0,.88-.1,1.94-.14,3.22s-.07,2.75-.07,4.43l-.07,4.94c0,1.53,0,3.85.14,6.85,0,.06,0,.13,0,.19l-.07,2.3a7.5,7.5,0,0,0,.19,2,5.4,5.4,0,0,1,1.68,4.17,9.51,9.51,0,0,1-1.31,4.58,12,12,0,0,1-3.16,3.73,7.54,7.54,0,0,1-4.65,1.74c-2.09,0-5.76-1-6.85-8.08a35.4,35.4,0,0,1-.32-5c0-.92,0-2.28.15-4.14l.07-4c0-1,0-2.28,0-3.8l-.11.22a11.51,11.51,0,0,1-3.1,3.8,7.06,7.06,0,0,1-10.86-1.54c-.33,2.26-.63,4.22-.92,5.85a63.43,63.43,0,0,1-2.3,9.07,29.34,29.34,0,0,1-2.78,6.14A7.05,7.05,0,0,1,172.43,124Z"></path>
            <path class="cls-4"
                  d="M185,58.32a2.56,2.56,0,0,1,2.38,1.44,9.15,9.15,0,0,1,.72,3.53l.22,1.73q.5,2.66,1.3,5.83a112.72,112.72,0,0,0,3.53,12q.57-1.73.72-2.09,2-5.9,3.64-9.79a38.48,38.48,0,0,1,3.92-7.2,13.52,13.52,0,0,1,2.45-2.63A4.33,4.33,0,0,1,206.63,60a2.43,2.43,0,0,1,2.2,1,5.54,5.54,0,0,1,.86,2.09q.18,1,.4,3.49.29,3.24.29,7.49,0,3.1-.29,9.43-.07,1.3-.14,3.24t-.07,4.54l-.07,4.9q0,2.38.14,7l-.07,2.3q0,3.31,1,4.18a2.44,2.44,0,0,1,.86,2.09,6.55,6.55,0,0,1-.94,3.13,9,9,0,0,1-2.38,2.81,4.62,4.62,0,0,1-2.81,1.12q-3,0-3.89-5.54a32.22,32.22,0,0,1-.29-4.54q0-1.3.14-4l.07-4q0-3.17.14-9.5T202,78.41q-1.8,4.82-4.54,13.25a29.56,29.56,0,0,1-1.58,4,8.49,8.49,0,0,1-2.3,2.81,4.46,4.46,0,0,1-2.88,1.22q-2.74,0-4.54-3.67a48.79,48.79,0,0,1-3.1-8.28l-.65,5.33q-.94,7.2-1.69,11.52a60.14,60.14,0,0,1-2.2,8.64,26.25,26.25,0,0,1-2.48,5.51,4.17,4.17,0,0,1-3.64,2.27,2.26,2.26,0,0,1-2.52-2.59,9.5,9.5,0,0,1,.93-3.78.22.22,0,0,0,0-.08l0-.11.07-.14-.07.14-.08.18a.09.09,0,0,1-.07,0l.43-1.37a43.28,43.28,0,0,0,1.15-5.11q1.08-5.47,2-12.31l1.73-12.6q.79-6.77,1.73-13a43,43,0,0,1,1.12-5.8,10.94,10.94,0,0,1,2.27-4.07A6.53,6.53,0,0,1,183,58.9a4.11,4.11,0,0,1,2-.58m0-6a10,10,0,0,0-4.88,1.32,12.54,12.54,0,0,0-3.52,2.89,16.9,16.9,0,0,0-3.45,6.29,48.07,48.07,0,0,0-1.29,6.6c-.63,4.2-1.21,8.62-1.74,13.13l-1.72,12.54c-.61,4.43-1.27,8.46-2,12l0,.15a37.79,37.79,0,0,1-1,4.36l-.42,1.33-.07.25a14.79,14.79,0,0,0-1.07,5.3,8.19,8.19,0,0,0,8.52,8.59,10.08,10.08,0,0,0,8.74-5.11,32.32,32.32,0,0,0,3.07-6.77,66.45,66.45,0,0,0,2.41-9.5l.13-.75a9.72,9.72,0,0,0,8.81-.5v.08c-.1,1.89-.15,3.28-.15,4.24a38.35,38.35,0,0,0,.35,5.39v.07c1.49,9.59,7.36,10.62,9.82,10.62a10.46,10.46,0,0,0,6.48-2.37,15,15,0,0,0,4-4.65,12.46,12.46,0,0,0,1.68-6,8.65,8.65,0,0,0-1.85-5.53c0-.17,0-.38,0-.65l.07-2.2q0-.19,0-.38c-.09-2.94-.14-5.21-.14-6.75l.07-4.85s0-.06,0-.09c0-1.64,0-3.09.07-4.31s.09-2.29.14-3.12v-.07c.2-4.39.29-7.56.29-9.7,0-3-.1-5.67-.31-8-.16-1.81-.31-3.11-.46-4a11.52,11.52,0,0,0-1.76-4.36A8.43,8.43,0,0,0,206.63,54a10.24,10.24,0,0,0-6.53,2.47,19.58,19.58,0,0,0-3.53,3.79l0,.06q-1.21,1.74-2.27,3.63l-.15-1.2a14.12,14.12,0,0,0-1.4-5.79l0-.07A8.51,8.51,0,0,0,185,52.32Z"></path>
            <path class="cls-3"
                  d="M216.27,120.58c-3.46,0-5-2.16-5-4.3a5.15,5.15,0,0,1,.46-2c1.44-3.56,3.17-7.69,5.11-12.24l.74-1.79-.39-.39a4.54,4.54,0,0,1-1.38-3.27c0-1.27.5-3.13,2.86-4.79a11.76,11.76,0,0,1,3.05-1.55c2-5,4-10.1,5.83-15.26a6,6,0,0,1,3.37-3.53,13.34,13.34,0,0,1,4-1.22,10.12,10.12,0,0,1,2.7-.42c3.41,0,4.92,2.11,5.2,4.09l1,6.1,1.52,6.33c1,4.25,2.29,9.21,3.76,14.72s2.3,8.78,2.73,10.5A5.25,5.25,0,0,1,252,113a6.42,6.42,0,0,1-3.31,5.51,10.29,10.29,0,0,1-5.66,1.74,6.52,6.52,0,0,1-4.79-1.82c-1.39-1.48-2.79-2.84-4.25-4.11s-3.18-2.69-5.37-4.43c-1.26,2.64-2.28,4.68-3.08,6.19a7.57,7.57,0,0,1-4.13,3.38A13.12,13.12,0,0,1,216.27,120.58Z"></path>
            <path class="cls-4"
                  d="M237.58,72.79q2,0,2.23,1.51l1,6.26L242.37,87q1.55,6.44,3.78,14.8,2.09,7.92,2.74,10.51a2.22,2.22,0,0,1,.07.65,3.58,3.58,0,0,1-1.94,3,7.31,7.31,0,0,1-4,1.26,3.6,3.6,0,0,1-2.66-.94q-2.09-2.23-4.39-4.25t-6-5l-2.38-1.94q-3,6.48-4.68,9.58a4.83,4.83,0,0,1-2.63,2,10.12,10.12,0,0,1-3.92.9q-2,0-2-1.3a2.28,2.28,0,0,1,.22-.86q2.16-5.33,5.11-12.24l1.51-3.67-1.8-1.8a1.58,1.58,0,0,1-.5-1.15,3,3,0,0,1,1.58-2.34,8.85,8.85,0,0,1,3.53-1.48q3.46-8.28,6.48-16.85a3.14,3.14,0,0,1,1.84-1.76,10.32,10.32,0,0,1,3.28-1,7.61,7.61,0,0,1,2.09-.36M236.07,101l-.5-2.09q-.5-2-2-8.57l-1.94,5L231,96.77l5,4.25m1.51-34.22a12.86,12.86,0,0,0-3.32.47,16.33,16.33,0,0,0-4.68,1.47,8.91,8.91,0,0,0-4.9,5.27c-1.66,4.68-3.43,9.34-5.28,13.89a14.78,14.78,0,0,0-2.49,1.42,8.77,8.77,0,0,0-4.13,7.24,7.52,7.52,0,0,0,1.29,4.22l0,.08c-1.94,4.54-3.66,8.66-5.12,12.27a8.17,8.17,0,0,0-.67,3.16c0,3.63,2.75,7.3,8,7.3a16.09,16.09,0,0,0,6.27-1.38,10.4,10.4,0,0,0,5.63-4.77c.43-.81.92-1.76,1.47-2.86q1.33,1.1,2.35,2c1.37,1.2,2.71,2.49,4,3.83l.14.14a9.45,9.45,0,0,0,6.91,2.7,13.24,13.24,0,0,0,7.3-2.23,9.39,9.39,0,0,0,4.68-8,8.21,8.21,0,0,0-.28-2.21c-.44-1.74-1.31-5.08-2.73-10.48s-2.73-10.44-3.75-14.67l-1.5-6.22-1-6a7.8,7.8,0,0,0-8.16-6.59Z"></path>
            <path class="cls-3"
                  d="M273.58,122.66a6.45,6.45,0,0,1-3.65-1,4.92,4.92,0,0,1-2.16-3.88,13.18,13.18,0,0,0-2.51-7,11,11,0,0,0-1.81-2l-.2,5.76c-.11,2.1-1.41,3.78-3.87,5.07a12.05,12.05,0,0,1-5.6,1.5,6.23,6.23,0,0,1-3.29-.84,4.36,4.36,0,0,1-2.08-3.82l.19-8.73a4.57,4.57,0,0,1-.91-2.72,5.14,5.14,0,0,1,1.11-3.15c.23-8.34.51-16.76.83-25,.07-1.47.74-3.53,3.58-5.12a11.06,11.06,0,0,1,5.47-1.5,6.09,6.09,0,0,1,3.59,1c4.81,1.33,9.85,2.8,15,4.38a9,9,0,0,1,1.66-.19,5.92,5.92,0,0,1,3.77,1.19,4.93,4.93,0,0,1,1.82,4,11.6,11.6,0,0,1-2.58,7.29,45.18,45.18,0,0,1-5.79,5.92l-1.36,1.23q-1.56,1.53-3.1,2.92a19.79,19.79,0,0,1,2.92,2.05,7.91,7.91,0,0,1,3.68-2.95,11.92,11.92,0,0,1,4.81-1.08c4,0,5.38,2.43,5.38,4.51a5.82,5.82,0,0,1-.41,2.06l-.05.13a78.46,78.46,0,0,0-4.3,12.9,7.57,7.57,0,0,1-2.94,4.18,8.75,8.75,0,0,1-3.06,2.13A10.23,10.23,0,0,1,273.58,122.66ZM264,88.9q2.11-1.7,3.53-3l-3.43-1Z"></path>
            <path class="cls-4"
                  d="M258.68,73.15a2.79,2.79,0,0,1,2.16.72q7.85,2.16,16.27,4.75a10,10,0,0,1,1.8-.29,3,3,0,0,1,1.91.54,1.94,1.94,0,0,1,.68,1.62,8.63,8.63,0,0,1-1.94,5.44,42.06,42.06,0,0,1-5.4,5.51l-1.44,1.3a89.74,89.74,0,0,1-6.7,6,17.26,17.26,0,0,1,9.5,6.55q.29-.72,1.51-3.6a4.7,4.7,0,0,1,2.45-2,8.9,8.9,0,0,1,3.6-.83q2.38,0,2.38,1.51a2.94,2.94,0,0,1-.22,1,81.11,81.11,0,0,0-4.46,13.39,4.84,4.84,0,0,1-2.09,2.66,5.48,5.48,0,0,1-2.2,1.58,7.22,7.22,0,0,1-2.92.65,3.51,3.51,0,0,1-2-.5,1.93,1.93,0,0,1-.83-1.58,16.22,16.22,0,0,0-3.06-8.57,12.5,12.5,0,0,0-7.09-5l-.36,10.44q-.07,1.37-2.27,2.52a9.06,9.06,0,0,1-4.21,1.15,3.29,3.29,0,0,1-1.73-.4,1.37,1.37,0,0,1-.65-1.26l.22-9.94a1.84,1.84,0,0,1-.94-1.51,2.63,2.63,0,0,1,1.08-1.94q.36-13.1.86-26.14a3.35,3.35,0,0,1,2.05-2.63,8.06,8.06,0,0,1,4-1.12m2.16,22.32q2.16-1.8,2.52-2.16l2.09-1.73a60,60,0,0,0,4.57-4,14.79,14.79,0,0,0,2.7-3.46q-3.89-1-11.52-3.31l-.36,14.62m-2.16-28.32A14,14,0,0,0,251.74,69c-4.24,2.39-5,5.77-5.1,7.58-.31,8.06-.59,16.2-.81,24.27a8,8,0,0,0-1.14,4.09,7.47,7.47,0,0,0,.89,3.54l-.17,7.78s0,.09,0,.13a7.4,7.4,0,0,0,3.52,6.38,9.16,9.16,0,0,0,4.86,1.28,15,15,0,0,0,7-1.84,11,11,0,0,0,4.1-3.46,7.77,7.77,0,0,0,3.4,5.38,9.38,9.38,0,0,0,5.3,1.51,13.2,13.2,0,0,0,5.33-1.15,11.86,11.86,0,0,0,3.89-2.66,10.35,10.35,0,0,0,3.8-5.63l0-.09a75.5,75.5,0,0,1,4.14-12.4l.1-.26a8.89,8.89,0,0,0,.6-3.11c0-3.62-2.62-7.51-8.38-7.51a13.49,13.49,0,0,0-1.79.12,38.05,38.05,0,0,0,3-3.35,14.53,14.53,0,0,0,3.22-9.13,7.87,7.87,0,0,0-3-6.33,8.89,8.89,0,0,0-5.62-1.83,9.93,9.93,0,0,0-1.46.12c-4.77-1.46-9.46-2.82-14-4.07a9.22,9.22,0,0,0-4.82-1.23Z"></path>
            <path class="cls-3"
                  d="M308.65,122.66a6.45,6.45,0,0,1-3.65-1,4.92,4.92,0,0,1-2.16-3.88,13.18,13.18,0,0,0-2.51-7,11,11,0,0,0-1.81-2l-.2,5.76c-.11,2.1-1.41,3.78-3.87,5.07a12.05,12.05,0,0,1-5.6,1.5,6.23,6.23,0,0,1-3.29-.84,4.36,4.36,0,0,1-2.08-3.82l.19-8.73a4.57,4.57,0,0,1-.91-2.72,5.14,5.14,0,0,1,1.11-3.15c.23-8.34.51-16.76.83-25,.07-1.47.74-3.53,3.58-5.12a11.06,11.06,0,0,1,5.47-1.5,6.09,6.09,0,0,1,3.59,1c4.81,1.33,9.85,2.8,15,4.38a9,9,0,0,1,1.66-.19,5.92,5.92,0,0,1,3.77,1.19,4.93,4.93,0,0,1,1.82,4A11.6,11.6,0,0,1,317,87.78a45.18,45.18,0,0,1-5.79,5.92l-1.36,1.23q-1.56,1.53-3.1,2.92a19.79,19.79,0,0,1,2.92,2.05,7.91,7.91,0,0,1,3.68-2.95,11.92,11.92,0,0,1,4.81-1.08c4,0,5.38,2.43,5.38,4.51a5.82,5.82,0,0,1-.41,2.06l-.05.13a78.46,78.46,0,0,0-4.3,12.9,7.57,7.57,0,0,1-2.94,4.18,8.75,8.75,0,0,1-3.06,2.13A10.23,10.23,0,0,1,308.65,122.66ZM299.07,88.9q2.11-1.7,3.53-3l-3.43-1Z"></path>
            <path class="cls-4"
                  d="M293.74,73.15a2.79,2.79,0,0,1,2.16.72q7.85,2.16,16.27,4.75a10,10,0,0,1,1.8-.29,3,3,0,0,1,1.91.54,1.94,1.94,0,0,1,.68,1.62,8.63,8.63,0,0,1-1.94,5.44,42.06,42.06,0,0,1-5.4,5.51l-1.44,1.3a89.74,89.74,0,0,1-6.7,6,17.26,17.26,0,0,1,9.5,6.55q.29-.72,1.51-3.6a4.7,4.7,0,0,1,2.45-2,8.9,8.9,0,0,1,3.6-.83q2.38,0,2.38,1.51a2.94,2.94,0,0,1-.22,1,81.11,81.11,0,0,0-4.46,13.39,4.84,4.84,0,0,1-2.09,2.66,5.48,5.48,0,0,1-2.2,1.58,7.22,7.22,0,0,1-2.92.65,3.51,3.51,0,0,1-2-.5,1.93,1.93,0,0,1-.83-1.58,16.22,16.22,0,0,0-3.06-8.57,12.5,12.5,0,0,0-7.09-5l-.36,10.44q-.07,1.37-2.27,2.52a9.06,9.06,0,0,1-4.21,1.15,3.29,3.29,0,0,1-1.73-.4,1.37,1.37,0,0,1-.65-1.26l.22-9.94a1.84,1.84,0,0,1-.94-1.51,2.63,2.63,0,0,1,1.08-1.94q.36-13.1.86-26.14a3.35,3.35,0,0,1,2.05-2.63,8.06,8.06,0,0,1,4-1.12m2.16,22.32q2.16-1.8,2.52-2.16l2.09-1.73a60,60,0,0,0,4.57-4,14.79,14.79,0,0,0,2.7-3.46q-3.89-1-11.52-3.31l-.36,14.62m-2.16-28.32A14,14,0,0,0,286.8,69c-4.24,2.39-5,5.77-5.1,7.58-.31,8.06-.59,16.2-.81,24.27a8,8,0,0,0-1.14,4.09,7.47,7.47,0,0,0,.89,3.54l-.17,7.78s0,.09,0,.13a7.4,7.4,0,0,0,3.52,6.38,9.16,9.16,0,0,0,4.86,1.28,15,15,0,0,0,7-1.84,11,11,0,0,0,4.1-3.46,7.77,7.77,0,0,0,3.4,5.38,9.38,9.38,0,0,0,5.3,1.51,13.2,13.2,0,0,0,5.33-1.15,11.86,11.86,0,0,0,3.89-2.66,10.35,10.35,0,0,0,3.8-5.63l0-.09a75.5,75.5,0,0,1,4.14-12.4l.1-.26a8.89,8.89,0,0,0,.6-3.11c0-3.62-2.62-7.51-8.38-7.51a13.49,13.49,0,0,0-1.79.12,38.05,38.05,0,0,0,3-3.35,14.53,14.53,0,0,0,3.22-9.13,7.87,7.87,0,0,0-3-6.33A8.89,8.89,0,0,0,314,72.34a9.93,9.93,0,0,0-1.46.12c-4.77-1.46-9.46-2.82-14-4.07a9.22,9.22,0,0,0-4.82-1.23Z"></path>
            <path class="cls-3"
                  d="M324.06,122.59a5.7,5.7,0,0,1-4.28-1.57,4.8,4.8,0,0,1-1.31-3.62l2.16-39.09a5.84,5.84,0,0,1,3-4.66,5.29,5.29,0,0,1-1.43-.75,4.43,4.43,0,0,1-1.73-4.35l.86-5.32c.24-1.93,1.53-3.51,3.83-4.7a11.76,11.76,0,0,1,5.41-1.42,5.31,5.31,0,0,1,4.26,1.66,4.38,4.38,0,0,1,.94,3.54c-.15,1.23-.41,3-.8,5.47a6.21,6.21,0,0,1-3.07,4.34,5.6,5.6,0,0,1,1.3.62,4.48,4.48,0,0,1,2,4.21l-2.08,39c-.07,1.44-.75,3.5-3.63,5.09A11.25,11.25,0,0,1,324.06,122.59Z"></path>
            <path class="cls-4"
                  d="M330.61,60.12q2.52,0,2.23,1.8t-.79,5.4a3.71,3.71,0,0,1-2.23,2.59,8.35,8.35,0,0,1-4,1.08,3,3,0,0,1-1.84-.5,1.47,1.47,0,0,1-.54-1.51l.86-5.33q.14-1.37,2.23-2.45a8.77,8.77,0,0,1,4-1.08m-.86,14.69a3.39,3.39,0,0,1,1.87.47,1.49,1.49,0,0,1,.65,1.48l-2.09,39.1q-.07,1.51-2.09,2.63a8.25,8.25,0,0,1-4,1.12q-2.66,0-2.59-2.09l2.16-39q.07-1.44,2.09-2.56a8.26,8.26,0,0,1,4-1.12m.86-20.69a14.72,14.72,0,0,0-6.79,1.75c-4,2-5.14,4.86-5.42,6.93L317.56,68l0,.11A7.56,7.56,0,0,0,319.06,74a8.23,8.23,0,0,0-1.43,4.22l-2.16,39v.13a7.87,7.87,0,0,0,2.15,5.81,8.61,8.61,0,0,0,6.44,2.49,14.21,14.21,0,0,0,6.94-1.87c4.3-2.38,5.09-5.78,5.17-7.59l2.08-39a7.61,7.61,0,0,0-1.66-5.33A8.59,8.59,0,0,0,338,68.23c.39-2.44.66-4.25.81-5.51a7.33,7.33,0,0,0-1.64-5.89,8.18,8.18,0,0,0-6.54-2.71Z"></path>
            <path class="cls-3"
                  d="M336.8,121.3a6.23,6.23,0,0,1-3.29-.84,4.36,4.36,0,0,1-2.08-3.82,5.34,5.34,0,0,1,.33-1.91c1.35-3.78,2.45-7.23,3.26-10.24a52.91,52.91,0,0,0,1.6-9c.42-4.23.64-7.33.64-9.24,0-4.62-.83-8.12-2.48-10.42a4.71,4.71,0,0,1-1-3c0-1.42.59-3.47,3.42-5.24a10.43,10.43,0,0,1,5.55-1.72,5.72,5.72,0,0,1,3.48,1,4.88,4.88,0,0,1,2.44,2.69,20.26,20.26,0,0,0,4.3,7,7.13,7.13,0,0,0,5.33,2.36,11.58,11.58,0,0,0,1.84-.24l.11,0A12.5,12.5,0,0,1,362,78.5a5.59,5.59,0,0,1,3.82,1.29,4.89,4.89,0,0,1,1.63,3.73,6.1,6.1,0,0,1-1.51,3.92,7.5,7.5,0,0,1-3.61,2.4A21.11,21.11,0,0,1,355.52,91a19.57,19.57,0,0,1-4-.4c-.06.91-.12,1.69-.19,2.33l-.07.62,1.82-.25.17,0,1-.07h.21c4.34,0,5.88,2.66,5.88,4.94a5.69,5.69,0,0,1-2.72,4.76,10.81,10.81,0,0,1-3.63,1.68h.75a33.81,33.81,0,0,1,11.81,2.19,4.32,4.32,0,0,1,3.07,4.12,6.62,6.62,0,0,1-2.25,4.64,8.29,8.29,0,0,1-6,2.39,8.64,8.64,0,0,1-2.91-.45,20,20,0,0,0-6-1.07,18.08,18.08,0,0,0-9.38,3,11,11,0,0,1-3,1.4A11.78,11.78,0,0,1,336.8,121.3Z"></path>
            <path class="cls-4"
                  d="M342.78,68.9a2.57,2.57,0,0,1,1.87.58,2,2,0,0,1,1.22,1.15,23.16,23.16,0,0,0,5,8,10.07,10.07,0,0,0,7.49,3.28,14.59,14.59,0,0,0,2.38-.29,12.37,12.37,0,0,1,1.3-.14,2.71,2.71,0,0,1,1.84.54,1.87,1.87,0,0,1,.61,1.48,3.18,3.18,0,0,1-.83,2,4.53,4.53,0,0,1-2.2,1.44,18.17,18.17,0,0,1-5.9,1,16.48,16.48,0,0,1-6.77-1.44q-.15,4-.36,6l-.5,4.54q2.81-.5,5.62-.86l1-.07q2.88,0,2.88,1.94a2.84,2.84,0,0,1-1.44,2.3,7.61,7.61,0,0,1-3,1.3q-2.23.43-6.12.94-.79,3.53-1.73,6.62a28,28,0,0,1,9.65-1.73,30.71,30.71,0,0,1,10.8,2,1.33,1.33,0,0,1,1.08,1.3,3.8,3.8,0,0,1-1.37,2.52,5.26,5.26,0,0,1-3.89,1.51,5.72,5.72,0,0,1-1.94-.29,22.87,22.87,0,0,0-6.91-1.22,21,21,0,0,0-11,3.46,7.93,7.93,0,0,1-2.27,1,8.76,8.76,0,0,1-2.48.4,3.29,3.29,0,0,1-1.73-.4,1.37,1.37,0,0,1-.65-1.26,2.32,2.32,0,0,1,.14-.86q2.09-5.83,3.35-10.51a55.65,55.65,0,0,0,1.69-9.5q.65-6.48.65-9.5,0-8-3.1-12.24a1.73,1.73,0,0,1-.36-1.15q0-1.44,2-2.7a7.46,7.46,0,0,1,4-1.26m0-6a13.37,13.37,0,0,0-7.14,2.17c-4.21,2.63-4.84,6-4.84,7.79a7.71,7.71,0,0,0,1.57,4.76c1.24,1.76,1.89,4.74,1.89,8.63,0,1.81-.21,4.81-.62,8.91v.06a49.89,49.89,0,0,1-1.51,8.48c-.79,2.93-1.86,6.29-3.18,10a8.33,8.33,0,0,0-.52,3,7.39,7.39,0,0,0,3.52,6.38,9.17,9.17,0,0,0,4.85,1.27,14.77,14.77,0,0,0,4.19-.64,14,14,0,0,0,3.81-1.75,15.12,15.12,0,0,1,7.77-2.5,17,17,0,0,1,5,.91,11.61,11.61,0,0,0,3.86.6,11.23,11.23,0,0,0,8.13-3.27,9.49,9.49,0,0,0,3.13-6.76,7.33,7.33,0,0,0-5.05-6.94,38.77,38.77,0,0,0-5.4-1.57,8.33,8.33,0,0,0,1.16-4.23,7.82,7.82,0,0,0-1.75-5q.84-.22,1.67-.5a10.44,10.44,0,0,0,5-3.33,9.1,9.1,0,0,0,2.19-5.82,7.84,7.84,0,0,0-2.64-6,8.54,8.54,0,0,0-5.81-2,15.17,15.17,0,0,0-2.14.2l-.23,0a11.14,11.14,0,0,1-1.33.19,4.1,4.1,0,0,1-3.14-1.45,17.31,17.31,0,0,1-3.66-6,7.82,7.82,0,0,0-3.69-4.19,8.74,8.74,0,0,0-5-1.43Z"></path>
            <path class="cls-3"
                  d="M369.78,119.06a6.12,6.12,0,0,1-3.64-1.15,4.94,4.94,0,0,1-2.1-4,5.41,5.41,0,0,1,2.11-4.21l.26-16.35c.09-3.79.19-9.63.28-17.38a5,5,0,0,1-.07-.86,4.65,4.65,0,0,1,.14-1.07s0-.54,0-.59c.07-1.39.73-3.36,3.44-4.83a10.91,10.91,0,0,1,5.24-1.33,7.13,7.13,0,0,1,3.75.94,4.71,4.71,0,0,1,2.26,3.87c5.2,6.95,10.84,11.25,16.77,12.78l.2.06a6.79,6.79,0,0,1,2.33,1.18,4.11,4.11,0,0,1,1.59,3.25,5,5,0,0,1-.65,2.44A49.59,49.59,0,0,1,391,105.61a116.11,116.11,0,0,1-15.6,11.69l-.1.06a15.17,15.17,0,0,1-2.42,1.13A9,9,0,0,1,369.78,119.06Zm11.46-27.61c0,2-.06,4.22-.1,6.72a47.28,47.28,0,0,0,4.08-4.43A32.89,32.89,0,0,1,381.23,91.46Z"></path>
            <path class="cls-4"
                  d="M375.46,70.27a4.2,4.2,0,0,1,2.2.5,1.72,1.72,0,0,1,.83,1.58v.72q8.71,12,19,14.69a4,4,0,0,1,1.37.65,1.11,1.11,0,0,1,.5.94,2,2,0,0,1-.29,1,46.37,46.37,0,0,1-10.08,13,112.59,112.59,0,0,1-15.19,11.38,12.12,12.12,0,0,1-1.94.9,6,6,0,0,1-2.09.4,3.09,3.09,0,0,1-1.87-.58,1.92,1.92,0,0,1-.86-1.58,2.64,2.64,0,0,1,1.37-2.16,1.1,1.1,0,0,0,.29-.22,1.69,1.69,0,0,1,.43-.29l.29-17.86q.14-5.83.29-17.78a1.23,1.23,0,0,1-.07-.5,4.3,4.3,0,0,1,.14-.72v-.79a3,3,0,0,1,1.87-2.34,7.91,7.91,0,0,1,3.82-1m2.59,34.49a52.12,52.12,0,0,0,11.88-12.38,30.9,30.9,0,0,1-11.59-7q-.15,6.55-.29,19.37m-2.59-40.49A13.88,13.88,0,0,0,368.8,66c-4.15,2.24-4.92,5.54-5,7.31q0,.15,0,.31v.12a7,7,0,0,0-.14,1.39,8.28,8.28,0,0,0,.07,1.05c-.09,7.62-.19,13.37-.28,17.09v.05l-.24,15.11A8.21,8.21,0,0,0,361,113.9a8,8,0,0,0,3.26,6.38l.06,0a9.1,9.1,0,0,0,5.41,1.73,12,12,0,0,0,4.16-.76,18.15,18.15,0,0,0,2.9-1.35l.2-.12a119.07,119.07,0,0,0,16-12A52.57,52.57,0,0,0,404.36,93.2a8,8,0,0,0,1-3.85,7.07,7.07,0,0,0-2.68-5.56,9.74,9.74,0,0,0-3.29-1.71L399,82c-5.07-1.31-10-5-14.63-11a7.59,7.59,0,0,0-3.58-5.27,10.08,10.08,0,0,0-5.32-1.38Z"></path>
            <path class="cls-3"
                  d="M172.51,121.53a2.76,2.76,0,0,1-3-3.09,9.42,9.42,0,0,1,.73-3.39l.59-1.87a43,43,0,0,0,1.14-5c.72-3.63,1.39-7.76,2-12.3l1.73-12.6c.52-4.48,1.11-8.87,1.73-13a43.66,43.66,0,0,1,1.13-5.86,11.48,11.48,0,0,1,2.37-4.25,7,7,0,0,1,2-1.62,4.62,4.62,0,0,1,2.22-.64,3,3,0,0,1,2.81,1.7,9.49,9.49,0,0,1,.78,3.74l.21,1.7c.33,1.73.76,3.69,1.28,5.77,1.09,4.36,2.11,7.91,3,10.56.13-.37.22-.63.27-.76,1.33-3.89,2.55-7.2,3.64-9.8a39.17,39.17,0,0,1,4-7.29,14.1,14.1,0,0,1,2.54-2.73,4.83,4.83,0,0,1,3.05-1.23,2.91,2.91,0,0,1,2.61,1.27,6.06,6.06,0,0,1,.94,2.28c.12.71.26,1.9.4,3.53.19,2.18.29,4.72.29,7.53,0,2.05-.09,5.15-.29,9.45q-.07,1.3-.14,3.24c0,1.29-.07,2.81-.07,4.52l-.07,4.9c0,1.6,0,3.94.14,7l-.07,2.34c0,2.53.45,3.45.83,3.78a2.91,2.91,0,0,1,1,2.47,7.07,7.07,0,0,1-1,3.37,9.56,9.56,0,0,1-2.51,3,5.12,5.12,0,0,1-3.11,1.22c-2.29,0-3.76-2-4.38-6a32.9,32.9,0,0,1-.29-4.61c0-.87,0-2.24.15-4.06l.07-4c0-2.11,0-5.31.14-9.51.11-3.29.18-6.6.2-9.86-1,2.85-2.2,6.37-3.55,10.53a30.19,30.19,0,0,1-1.61,4.1,9,9,0,0,1-2.44,3,5,5,0,0,1-3.19,1.34c-2,0-3.7-1.33-5-4a46.78,46.78,0,0,1-2.44-6.08l-.36,3c-.62,4.8-1.19,8.69-1.7,11.55a61,61,0,0,1-2.21,8.71,26.87,26.87,0,0,1-2.53,5.61A4.65,4.65,0,0,1,172.51,121.53Z"></path>
            <path class="cls-4"
                  d="M185.11,58.32a2.56,2.56,0,0,1,2.38,1.44,9.15,9.15,0,0,1,.72,3.53l.22,1.73q.5,2.66,1.3,5.83a112.72,112.72,0,0,0,3.53,12q.57-1.73.72-2.09,2-5.9,3.64-9.79a38.48,38.48,0,0,1,3.92-7.2A13.52,13.52,0,0,1,204,61.09,4.33,4.33,0,0,1,206.71,60a2.43,2.43,0,0,1,2.2,1,5.54,5.54,0,0,1,.86,2.09q.18,1,.4,3.49.29,3.24.29,7.49,0,3.1-.29,9.43-.07,1.3-.14,3.24T210,91.3l-.07,4.9q0,2.38.14,7l-.07,2.3q0,3.31,1,4.18a2.44,2.44,0,0,1,.86,2.09,6.55,6.55,0,0,1-.94,3.13,9,9,0,0,1-2.38,2.81,4.62,4.62,0,0,1-2.81,1.12q-3,0-3.89-5.54a32.22,32.22,0,0,1-.29-4.54q0-1.3.14-4l.07-4q0-3.17.14-9.5t.22-12.74q-1.8,4.82-4.54,13.25a29.56,29.56,0,0,1-1.58,4,8.49,8.49,0,0,1-2.3,2.81,4.46,4.46,0,0,1-2.88,1.22q-2.74,0-4.54-3.67a48.79,48.79,0,0,1-3.1-8.28l-.65,5.33q-.94,7.2-1.69,11.52a60.14,60.14,0,0,1-2.2,8.64,26.25,26.25,0,0,1-2.48,5.51,4.17,4.17,0,0,1-3.64,2.27,2.26,2.26,0,0,1-2.52-2.59,9.5,9.5,0,0,1,.93-3.78.22.22,0,0,0,0-.08l0-.11.07-.14-.07.14-.08.18a.09.09,0,0,1-.07,0l.43-1.37a43.28,43.28,0,0,0,1.15-5.11q1.08-5.47,2-12.31l1.73-12.6q.79-6.77,1.73-13a43,43,0,0,1,1.12-5.8,10.94,10.94,0,0,1,2.27-4.07,6.53,6.53,0,0,1,1.84-1.51,4.11,4.11,0,0,1,2-.58m0-1a5.11,5.11,0,0,0-2.46.7,7.55,7.55,0,0,0-2.12,1.74,12,12,0,0,0-2.47,4.44,44.14,44.14,0,0,0-1.15,5.94c-.62,4.16-1.2,8.56-1.73,13.05l-1.73,12.58c-.62,4.53-1.3,8.65-2,12.25a42.73,42.73,0,0,1-1.13,5l-.43,1.36-.15.49a9.9,9.9,0,0,0-.76,3.56,3.24,3.24,0,0,0,3.52,3.59,5.13,5.13,0,0,0,4.49-2.74,27.37,27.37,0,0,0,2.58-5.72,61.42,61.42,0,0,0,2.23-8.78c.5-2.87,1.07-6.76,1.7-11.56l.1-.84a44.62,44.62,0,0,0,1.75,4.1c1.38,2.81,3.2,4.23,5.43,4.23a5.44,5.44,0,0,0,3.53-1.46,9.49,9.49,0,0,0,2.55-3.12A30.66,30.66,0,0,0,198.52,92q1.38-4.26,2.54-7.62c0,2.26-.09,4.52-.17,6.78-.1,4.21-.15,7.41-.15,9.54l-.07,4c-.1,1.79-.14,3.17-.14,4a33.37,33.37,0,0,0,.3,4.68c.66,4.25,2.3,6.4,4.88,6.4a5.6,5.6,0,0,0,3.42-1.33,10.06,10.06,0,0,0,2.64-3.11,7.55,7.55,0,0,0,1.06-3.62,3.4,3.4,0,0,0-1.23-2.86c-.17-.16-.64-.83-.64-3.4l.07-2.27v-.06c-.09-3-.14-5.35-.14-7l.07-4.88c0-1.71,0-3.23.07-4.51s.1-2.36.14-3.22c.2-4.33.29-7.43.29-9.49,0-2.83-.1-5.38-.29-7.58-.15-1.64-.28-2.85-.41-3.57a6.55,6.55,0,0,0-1-2.47,3.4,3.4,0,0,0-3-1.5,5.32,5.32,0,0,0-3.37,1.34,14.59,14.59,0,0,0-2.63,2.82,39.68,39.68,0,0,0-4,7.4c-1,2.47-2.18,5.56-3.44,9.21-.79-2.45-1.64-5.5-2.55-9.14-.52-2.06-.95-4-1.28-5.74l-.21-1.67a9.88,9.88,0,0,0-.83-3.91,3.55,3.55,0,0,0-3.26-2Z"></path>
            <path class="cls-3"
                  d="M216.36,118.08c-2.19,0-2.52-1.12-2.52-1.8a2.73,2.73,0,0,1,.26-1.06c1.45-3.58,3.17-7.71,5.11-12.24l1.38-3.36L219,98.06a2.07,2.07,0,0,1-.65-1.51,3.5,3.5,0,0,1,1.8-2.75,9.35,9.35,0,0,1,3.46-1.51c2.25-5.39,4.39-11,6.37-16.58a3.61,3.61,0,0,1,2.09-2,10.85,10.85,0,0,1,3.43-1,7.7,7.7,0,0,1,2.15-.36c2,0,2.6,1.06,2.73,1.94l1,6.25,1.54,6.41c1,4.27,2.3,9.25,3.78,14.78s2.32,8.84,2.74,10.52a2.62,2.62,0,0,1,.09.77,4.06,4.06,0,0,1-2.17,3.41,7.83,7.83,0,0,1-4.3,1.34,4.1,4.1,0,0,1-3-1.08c-1.39-1.48-2.85-2.9-4.37-4.23s-3.55-3-6-5l-1.89-1.54c-1.89,4-3.37,7.06-4.42,9a5.22,5.22,0,0,1-2.87,2.2A10.65,10.65,0,0,1,216.36,118.08Zm19-18.43-.15-.61c-.29-1.16-.85-3.51-1.65-7l-1.36,3.46-.44,1.11Z"></path>
            <path class="cls-4"
                  d="M237.67,72.79q2,0,2.23,1.51l1,6.26L242.46,87q1.55,6.44,3.78,14.8,2.09,7.92,2.74,10.51a2.22,2.22,0,0,1,.07.65,3.58,3.58,0,0,1-1.94,3,7.31,7.31,0,0,1-4,1.26,3.6,3.6,0,0,1-2.66-.94Q238.32,114,236,112t-6-5l-2.38-1.94q-3,6.48-4.68,9.58a4.83,4.83,0,0,1-2.63,2,10.12,10.12,0,0,1-3.92.9q-2,0-2-1.3a2.28,2.28,0,0,1,.22-.86q2.16-5.33,5.11-12.24l1.51-3.67-1.8-1.8a1.58,1.58,0,0,1-.5-1.15,3,3,0,0,1,1.58-2.34A8.85,8.85,0,0,1,224,92.74q3.46-8.28,6.48-16.85a3.14,3.14,0,0,1,1.84-1.76,10.32,10.32,0,0,1,3.28-1,7.61,7.61,0,0,1,2.09-.36M236.16,101l-.5-2.09q-.5-2-2-8.57l-1.94,5-.58,1.44,5,4.25m1.51-29.22a8.37,8.37,0,0,0-2.29.38,11.36,11.36,0,0,0-3.51,1.06,4.1,4.1,0,0,0-2.35,2.35c-1.94,5.51-4,11-6.25,16.29a9.83,9.83,0,0,0-3.38,1.53,4,4,0,0,0-2,3.16,2.59,2.59,0,0,0,.8,1.86L220,99.74l-1.26,3.06c-1.93,4.53-3.66,8.65-5.11,12.25a3.18,3.18,0,0,0-.29,1.24c0,.69.29,2.3,3,2.3a11.15,11.15,0,0,0,4.31-1,5.7,5.7,0,0,0,3.13-2.45c1-1.89,2.37-4.66,4.15-8.44l1.38,1.13c2.48,2,4.5,3.62,6,4.95s3,2.72,4.32,4.18a4.58,4.58,0,0,0,3.39,1.25,8.33,8.33,0,0,0,4.58-1.42A4.53,4.53,0,0,0,250,113a3.23,3.23,0,0,0-.11-.92c-.42-1.7-1.29-5-2.73-10.5s-2.75-10.5-3.77-14.77l-1.54-6.41-1-6.23c-.1-.69-.62-2.35-3.22-2.35Zm-5.36,24.68.31-.77.77-2c.46,2,.82,3.5,1.07,4.55l-2.15-1.81Z"></path>
            <path class="cls-3"
                  d="M273.67,120.16a4,4,0,0,1-2.26-.59,2.41,2.41,0,0,1-1-2,15.81,15.81,0,0,0-3-8.31,12.13,12.13,0,0,0-6.21-4.67l-.34,9.8c-.06,1.11-.91,2.09-2.54,2.95a9.6,9.6,0,0,1-4.44,1.21,3.78,3.78,0,0,1-2-.47,1.85,1.85,0,0,1-.89-1.69l.21-9.69a2.21,2.21,0,0,1-.93-1.76,3,3,0,0,1,1.09-2.17c.24-8.63.53-17.35.86-25.93.06-1.19.83-2.21,2.31-3a8.6,8.6,0,0,1,4.24-1.18,3.39,3.39,0,0,1,2.42.77c5.13,1.41,10.53,3,16,4.68a9.49,9.49,0,0,1,1.78-.27,3.5,3.5,0,0,1,2.22.65,2.42,2.42,0,0,1,.88,2A9.15,9.15,0,0,1,280,86.24a42.74,42.74,0,0,1-5.46,5.58l-1.43,1.29c-2,2-4,3.8-6,5.4a17.71,17.71,0,0,1,8.33,5.76l1.19-2.8a5.18,5.18,0,0,1,2.71-2.24,9.44,9.44,0,0,1,3.8-.87c2.38,0,2.88,1.09,2.88,2a3.41,3.41,0,0,1-.25,1.18,81,81,0,0,0-4.45,13.33,5.29,5.29,0,0,1-2.23,2.92,6.06,6.06,0,0,1-2.34,1.68A7.74,7.74,0,0,1,273.67,120.16ZM261.45,94.38c1.11-.94,1.51-1.29,1.64-1.42l2.12-1.76a59.84,59.84,0,0,0,4.54-3.93A15.29,15.29,0,0,0,272,84.49c-2.46-.65-5.91-1.65-10.27-3Z"></path>
            <path class="cls-4"
                  d="M258.77,73.15a2.79,2.79,0,0,1,2.16.72q7.85,2.16,16.27,4.75a10,10,0,0,1,1.8-.29,3,3,0,0,1,1.91.54,1.94,1.94,0,0,1,.68,1.62,8.63,8.63,0,0,1-1.94,5.44,42.06,42.06,0,0,1-5.4,5.51l-1.44,1.3a89.74,89.74,0,0,1-6.7,6,17.26,17.26,0,0,1,9.5,6.55q.29-.72,1.51-3.6a4.7,4.7,0,0,1,2.45-2,8.9,8.9,0,0,1,3.6-.83q2.38,0,2.38,1.51a2.94,2.94,0,0,1-.22,1,81.11,81.11,0,0,0-4.46,13.39,4.84,4.84,0,0,1-2.09,2.66,5.48,5.48,0,0,1-2.2,1.58,7.22,7.22,0,0,1-2.92.65,3.51,3.51,0,0,1-2-.5,1.93,1.93,0,0,1-.83-1.58A16.22,16.22,0,0,0,267.8,109a12.5,12.5,0,0,0-7.09-5l-.36,10.44q-.07,1.37-2.27,2.52a9.06,9.06,0,0,1-4.21,1.15,3.29,3.29,0,0,1-1.73-.4,1.37,1.37,0,0,1-.65-1.26l.22-9.94a1.84,1.84,0,0,1-.94-1.51,2.63,2.63,0,0,1,1.08-1.94q.36-13.1.86-26.14a3.35,3.35,0,0,1,2.05-2.63,8.06,8.06,0,0,1,4-1.12m2.16,22.32q2.16-1.8,2.52-2.16l2.09-1.73a60,60,0,0,0,4.57-4,14.79,14.79,0,0,0,2.7-3.46q-3.89-1-11.52-3.31l-.36,14.62m-2.16-23.32a9.09,9.09,0,0,0-4.49,1.25c-1.63.92-2.5,2.08-2.56,3.45-.33,8.52-.62,17.17-.85,25.74a3.38,3.38,0,0,0-1.09,2.39,2.64,2.64,0,0,0,.93,2l-.21,9.44a2.38,2.38,0,0,0,1.13,2.14,4.27,4.27,0,0,0,2.25.54,10.09,10.09,0,0,0,4.68-1.27c1.79-.94,2.73-2.07,2.8-3.35l.32-9.13a11.57,11.57,0,0,1,5.32,4.26,15.31,15.31,0,0,1,2.88,8,2.91,2.91,0,0,0,1.27,2.36,4.49,4.49,0,0,0,2.53.67,8.24,8.24,0,0,0,3.32-.73,6.61,6.61,0,0,0,2.49-1.77,5.72,5.72,0,0,0,2.36-3.15,80.54,80.54,0,0,1,4.41-13.24,4,4,0,0,0,.3-1.4c0-.76-.33-2.51-3.38-2.51a9.93,9.93,0,0,0-4,.91,5.58,5.58,0,0,0-2.94,2.45v.05l-.87,2.05a18.11,18.11,0,0,0-7.19-5c1.75-1.47,3.54-3.1,5.36-4.88l1.41-1.27a43.17,43.17,0,0,0,5.52-5.64,9.64,9.64,0,0,0,2.16-6.05,2.91,2.91,0,0,0-1.07-2.4,4,4,0,0,0-2.53-.76,9.33,9.33,0,0,0-1.76.26c-5.42-1.67-10.74-3.22-15.8-4.62a4,4,0,0,0-2.67-.82ZM262,93.28l.27-11.09c3.69,1.11,6.71,2,9,2.6a15.76,15.76,0,0,1-1.84,2.12,59.29,59.29,0,0,1-4.49,3.89l-2.1,1.74,0,0,0,0c-.07.07-.26.24-.76.67Z"></path>
            <path class="cls-3"
                  d="M308.73,120.16a4,4,0,0,1-2.26-.59,2.41,2.41,0,0,1-1-2,15.81,15.81,0,0,0-3-8.31,12.13,12.13,0,0,0-6.21-4.67l-.34,9.8c-.06,1.11-.91,2.09-2.54,2.95a9.6,9.6,0,0,1-4.44,1.21,3.78,3.78,0,0,1-2-.47,1.85,1.85,0,0,1-.89-1.69l.21-9.69a2.21,2.21,0,0,1-.93-1.76,3,3,0,0,1,1.09-2.17c.24-8.63.53-17.35.86-25.93.06-1.19.83-2.21,2.31-3a8.6,8.6,0,0,1,4.24-1.18,3.39,3.39,0,0,1,2.42.77c5.13,1.41,10.53,3,16,4.68a9.49,9.49,0,0,1,1.78-.27,3.5,3.5,0,0,1,2.22.65,2.42,2.42,0,0,1,.88,2,9.15,9.15,0,0,1-2.05,5.74,42.74,42.74,0,0,1-5.46,5.58l-1.43,1.29c-2,2-4,3.8-6,5.4a17.71,17.71,0,0,1,8.33,5.76l1.19-2.8a5.18,5.18,0,0,1,2.71-2.24,9.44,9.44,0,0,1,3.8-.87c2.38,0,2.88,1.09,2.88,2a3.41,3.41,0,0,1-.25,1.18,81,81,0,0,0-4.45,13.33,5.29,5.29,0,0,1-2.23,2.92,6.06,6.06,0,0,1-2.34,1.68A7.74,7.74,0,0,1,308.73,120.16ZM296.52,94.38c1.11-.94,1.51-1.29,1.64-1.42l2.12-1.76a59.84,59.84,0,0,0,4.54-3.93,15.29,15.29,0,0,0,2.29-2.78c-2.46-.65-5.91-1.65-10.27-3Z"></path>
            <path class="cls-4"
                  d="M293.83,73.15a2.79,2.79,0,0,1,2.16.72q7.85,2.16,16.27,4.75a10,10,0,0,1,1.8-.29,3,3,0,0,1,1.91.54,1.94,1.94,0,0,1,.68,1.62,8.63,8.63,0,0,1-1.94,5.44,42.06,42.06,0,0,1-5.4,5.51l-1.44,1.3a89.74,89.74,0,0,1-6.7,6,17.26,17.26,0,0,1,9.5,6.55q.29-.72,1.51-3.6a4.7,4.7,0,0,1,2.45-2,8.9,8.9,0,0,1,3.6-.83q2.38,0,2.38,1.51a2.94,2.94,0,0,1-.22,1,81.11,81.11,0,0,0-4.46,13.39,4.84,4.84,0,0,1-2.09,2.66,5.48,5.48,0,0,1-2.2,1.58,7.22,7.22,0,0,1-2.92.65,3.51,3.51,0,0,1-2-.5,1.93,1.93,0,0,1-.83-1.58,16.22,16.22,0,0,0-3.06-8.57,12.5,12.5,0,0,0-7.09-5l-.36,10.44q-.07,1.37-2.27,2.52a9.06,9.06,0,0,1-4.21,1.15,3.29,3.29,0,0,1-1.73-.4,1.37,1.37,0,0,1-.65-1.26l.22-9.94a1.84,1.84,0,0,1-.94-1.51,2.63,2.63,0,0,1,1.08-1.94q.36-13.1.86-26.14a3.35,3.35,0,0,1,2.05-2.63,8.06,8.06,0,0,1,4-1.12M296,95.47q2.16-1.8,2.52-2.16l2.09-1.73a60,60,0,0,0,4.57-4,14.79,14.79,0,0,0,2.7-3.46q-3.89-1-11.52-3.31L296,95.47m-2.16-23.32a9.09,9.09,0,0,0-4.49,1.25c-1.63.92-2.5,2.08-2.56,3.45-.33,8.52-.62,17.17-.85,25.74a3.38,3.38,0,0,0-1.09,2.39,2.64,2.64,0,0,0,.93,2l-.21,9.44a2.38,2.38,0,0,0,1.13,2.14,4.27,4.27,0,0,0,2.25.54,10.09,10.09,0,0,0,4.68-1.27c1.79-.94,2.73-2.07,2.8-3.35l.32-9.13a11.57,11.57,0,0,1,5.32,4.26,15.31,15.31,0,0,1,2.88,8A2.91,2.91,0,0,0,306.2,120a4.49,4.49,0,0,0,2.53.67,8.24,8.24,0,0,0,3.32-.73,6.61,6.61,0,0,0,2.49-1.77A5.72,5.72,0,0,0,316.9,115a80.54,80.54,0,0,1,4.41-13.24,4,4,0,0,0,.3-1.4c0-.76-.33-2.51-3.38-2.51a9.93,9.93,0,0,0-4,.91,5.58,5.58,0,0,0-2.94,2.45v.05l-.87,2.05a18.11,18.11,0,0,0-7.19-5c1.75-1.47,3.54-3.1,5.36-4.88L310,92.18a43.17,43.17,0,0,0,5.52-5.64,9.64,9.64,0,0,0,2.16-6.05,2.91,2.91,0,0,0-1.07-2.4,4,4,0,0,0-2.53-.76,9.33,9.33,0,0,0-1.76.26c-5.42-1.67-10.74-3.22-15.8-4.62a4,4,0,0,0-2.67-.82ZM297,93.28l.27-11.09c3.69,1.11,6.71,2,9,2.6a15.76,15.76,0,0,1-1.84,2.12A59.29,59.29,0,0,1,300,90.8l-2.1,1.74,0,0,0,0c-.07.07-.26.24-.76.67Z"></path>
            <path class="cls-3"
                  d="M324.14,120.09a3.35,3.35,0,0,1-2.49-.81,2.36,2.36,0,0,1-.61-1.8l2.16-39c.06-1.14.84-2.13,2.34-3a8.79,8.79,0,0,1,4.27-1.18,3.89,3.89,0,0,1,2.14.55,2,2,0,0,1,.87,1.93l-2.09,39.09c-.06,1.19-.84,2.21-2.34,3A8.78,8.78,0,0,1,324.14,120.09Zm1.8-48.6a3.52,3.52,0,0,1-2.13-.6,1.94,1.94,0,0,1-.74-2l.87-5.34c.11-1.06,1-2,2.5-2.81a9.3,9.3,0,0,1,4.26-1.14,3,3,0,0,1,2.36.78,1.9,1.9,0,0,1,.37,1.6c-.14,1.18-.4,3-.79,5.4a4.19,4.19,0,0,1-2.49,3A8.88,8.88,0,0,1,325.94,71.49Z"></path>
            <path class="cls-4"
                  d="M330.69,60.12q2.52,0,2.23,1.8t-.79,5.4a3.71,3.71,0,0,1-2.23,2.59,8.35,8.35,0,0,1-4,1.08,3,3,0,0,1-1.84-.5,1.47,1.47,0,0,1-.54-1.51l.86-5.33q.14-1.37,2.23-2.45a8.77,8.77,0,0,1,4-1.08m-.86,14.69a3.39,3.39,0,0,1,1.87.47,1.49,1.49,0,0,1,.65,1.48l-2.09,39.1q-.07,1.51-2.09,2.63a8.25,8.25,0,0,1-4,1.12q-2.66,0-2.59-2.09l2.16-39q.07-1.44,2.09-2.56a8.26,8.26,0,0,1,4-1.12m.86-15.69a9.79,9.79,0,0,0-4.49,1.19c-1.69.87-2.62,2-2.76,3.2l-.86,5.3a2.47,2.47,0,0,0,.94,2.48,4,4,0,0,0,2.43.7,9.37,9.37,0,0,0,4.43-1.2,4.65,4.65,0,0,0,2.75-3.33c.39-2.43.65-4.21.79-5.42a2.34,2.34,0,0,0-.49-2,3.4,3.4,0,0,0-2.74-1Zm-.86,14.69A9.29,9.29,0,0,0,325.31,75c-1.66.92-2.54,2.06-2.6,3.38l-2.16,39a2.86,2.86,0,0,0,.74,2.18,3.81,3.81,0,0,0,2.85,1,9.28,9.28,0,0,0,4.52-1.24c1.66-.92,2.54-2.08,2.6-3.46l2.09-39.09a2.49,2.49,0,0,0-1.1-2.37,4.37,4.37,0,0,0-2.42-.63Z"></path>
            <path class="cls-3"
                  d="M336.89,118.8a3.79,3.79,0,0,1-2-.47,1.85,1.85,0,0,1-.89-1.69,2.82,2.82,0,0,1,.18-1.05c1.38-3.84,2.5-7.37,3.33-10.46a55.46,55.46,0,0,0,1.68-9.42c.43-4.29.65-7.47.65-9.46,0-5.19-1-9.21-3-11.95a2.2,2.2,0,0,1-.46-1.45c0-1.14.76-2.19,2.25-3.12a8,8,0,0,1,4.22-1.34,3.14,3.14,0,0,1,2.15.65,2.41,2.41,0,0,1,1.42,1.41,22.77,22.77,0,0,0,4.86,7.85,9.63,9.63,0,0,0,7.13,3.12,14.23,14.23,0,0,0,2.29-.28,11.18,11.18,0,0,1,1.39-.15,3.19,3.19,0,0,1,2.17.67,2.36,2.36,0,0,1,.78,1.85,3.68,3.68,0,0,1-.94,2.33,5,5,0,0,1-2.43,1.6,18.72,18.72,0,0,1-6.05,1,17,17,0,0,1-6.29-1.2c-.09,2.37-.2,4.13-.34,5.36l-.43,3.87c1.66-.29,3.33-.54,5-.75l1-.07c2.83,0,3.41,1.33,3.41,2.44a3.32,3.32,0,0,1-1.65,2.71,8.15,8.15,0,0,1-3.15,1.38c-1.43.28-3.38.58-5.8.9-.43,1.89-.89,3.69-1.38,5.38a28.52,28.52,0,0,1,8.89-1.44,31.34,31.34,0,0,1,11,2,1.79,1.79,0,0,1,1.41,1.76,4.22,4.22,0,0,1-1.51,2.87,5.77,5.77,0,0,1-4.24,1.66,6.24,6.24,0,0,1-2.12-.32,22.46,22.46,0,0,0-6.74-1.19,20.57,20.57,0,0,0-10.75,3.38,8.41,8.41,0,0,1-2.39,1.1A9.31,9.31,0,0,1,336.89,118.8Z"></path>
            <path class="cls-4"
                  d="M342.86,68.9a2.57,2.57,0,0,1,1.87.58A2,2,0,0,1,346,70.63a23.16,23.16,0,0,0,5,8,10.07,10.07,0,0,0,7.49,3.28,14.58,14.58,0,0,0,2.38-.29,12.37,12.37,0,0,1,1.3-.14,2.71,2.71,0,0,1,1.84.54,1.87,1.87,0,0,1,.61,1.48,3.18,3.18,0,0,1-.83,2,4.53,4.53,0,0,1-2.2,1.44,18.17,18.17,0,0,1-5.9,1,16.48,16.48,0,0,1-6.77-1.44q-.15,4-.36,6l-.5,4.54q2.81-.5,5.62-.86l1-.07q2.88,0,2.88,1.94a2.84,2.84,0,0,1-1.44,2.3,7.61,7.61,0,0,1-3,1.3q-2.23.43-6.12.94-.79,3.53-1.73,6.62a28,28,0,0,1,9.65-1.73,30.71,30.71,0,0,1,10.8,2,1.33,1.33,0,0,1,1.08,1.3,3.8,3.8,0,0,1-1.37,2.52,5.26,5.26,0,0,1-3.89,1.51,5.72,5.72,0,0,1-1.94-.29,22.87,22.87,0,0,0-6.91-1.22,21,21,0,0,0-11,3.46,7.93,7.93,0,0,1-2.27,1,8.76,8.76,0,0,1-2.48.4,3.29,3.29,0,0,1-1.73-.4,1.37,1.37,0,0,1-.65-1.26,2.32,2.32,0,0,1,.14-.86q2.09-5.83,3.35-10.51a55.65,55.65,0,0,0,1.69-9.5q.65-6.48.65-9.5,0-8-3.1-12.24a1.73,1.73,0,0,1-.36-1.15q0-1.44,2-2.7a7.46,7.46,0,0,1,4-1.26m0-1a8.47,8.47,0,0,0-4.49,1.41c-1.65,1-2.49,2.23-2.49,3.55a2.72,2.72,0,0,0,.57,1.76c1.92,2.65,2.89,6.56,2.89,11.63,0,2-.22,5.14-.64,9.4A55,55,0,0,1,337,105c-.83,3.08-1.95,6.59-3.32,10.43a3.27,3.27,0,0,0-.2,1.2,2.37,2.37,0,0,0,1.13,2.11,4.27,4.27,0,0,0,2.25.54,9.79,9.79,0,0,0,2.77-.44,9,9,0,0,0,2.53-1.16,20.06,20.06,0,0,1,10.47-3.29,22,22,0,0,1,6.61,1.18,6.59,6.59,0,0,0,2.25.34,6.25,6.25,0,0,0,4.59-1.8,4.68,4.68,0,0,0,1.66-3.23,2.33,2.33,0,0,0-1.76-2.24,31.78,31.78,0,0,0-11.12-2.07,28.9,28.9,0,0,0-8.16,1.19c.37-1.33.73-2.73,1.06-4.18,2.27-.3,4.12-.59,5.49-.86a8.64,8.64,0,0,0,3.34-1.46,3.79,3.79,0,0,0,1.87-3.12c0-.89-.38-2.94-3.88-2.94h-.07l-1,.07h-.06c-1.44.19-2.9.4-4.35.64l.36-3.21c.12-1.12.22-2.67.31-4.71a17.51,17.51,0,0,0,5.82,1,19.25,19.25,0,0,0,6.23-1.06,5.51,5.51,0,0,0,2.65-1.75,4.16,4.16,0,0,0,1.05-2.65,2.87,2.87,0,0,0-.95-2.23,3.67,3.67,0,0,0-2.5-.79,11.21,11.21,0,0,0-1.44.15,13.58,13.58,0,0,1-2.23.28,9,9,0,0,1-6.77-3,22.28,22.28,0,0,1-4.75-7.69,2.89,2.89,0,0,0-1.62-1.66,3.68,3.68,0,0,0-2.41-.72Z"></path>
            <path class="cls-3"
                  d="M369.86,116.56a3.59,3.59,0,0,1-2.17-.67,2.41,2.41,0,0,1-1.07-2,3.12,3.12,0,0,1,1.59-2.57.83.83,0,0,0,.22-.16,1.71,1.71,0,0,1,.29-.23L369,93.38c.09-3.83.19-9.78.29-17.69a2,2,0,0,1-.07-.59,3.5,3.5,0,0,1,.14-.78v-.73a3.44,3.44,0,0,1,2.13-2.78,8.44,8.44,0,0,1,4.05-1,4.7,4.7,0,0,1,2.46.58,2.23,2.23,0,0,1,1.07,2v.56c5.69,7.81,12,12.64,18.63,14.37a4.25,4.25,0,0,1,1.6.78,1.54,1.54,0,0,1,.65,1.29,2.52,2.52,0,0,1-.35,1.26,47.06,47.06,0,0,1-10.18,13.15,113.63,113.63,0,0,1-15.26,11.43,12.68,12.68,0,0,1-2,.95A6.57,6.57,0,0,1,369.86,116.56Zm9-30.09c-.08,4.06-.17,9.73-.25,17.25a51.67,51.67,0,0,0,10.58-11.07A31.34,31.34,0,0,1,378.91,86.48Z"></path>
            <path class="cls-4"
                  d="M375.55,70.27a4.2,4.2,0,0,1,2.2.5,1.72,1.72,0,0,1,.83,1.58v.72q8.71,12,19,14.69a4,4,0,0,1,1.37.65,1.11,1.11,0,0,1,.5.94,2,2,0,0,1-.29,1,46.37,46.37,0,0,1-10.08,13,112.59,112.59,0,0,1-15.19,11.38,12.12,12.12,0,0,1-1.94.9,6,6,0,0,1-2.09.4,3.09,3.09,0,0,1-1.87-.58,1.92,1.92,0,0,1-.86-1.58,2.64,2.64,0,0,1,1.37-2.16,1.1,1.1,0,0,0,.29-.22,1.69,1.69,0,0,1,.43-.29l.29-17.86q.14-5.83.29-17.78a1.23,1.23,0,0,1-.07-.5,4.3,4.3,0,0,1,.14-.72v-.79a3,3,0,0,1,1.87-2.34,7.91,7.91,0,0,1,3.82-1m2.59,34.49A52.12,52.12,0,0,0,390,92.38a30.9,30.9,0,0,1-11.59-7q-.15,6.55-.29,19.37m-2.59-35.49a8.93,8.93,0,0,0-4.29,1.09,3.9,3.9,0,0,0-2.4,3.17v.72a3.63,3.63,0,0,0-.14.84,2.63,2.63,0,0,0,.07.66c-.1,7.87-.19,13.79-.29,17.6l-.28,17.33-.15.13,0,0-.07,0,0,0a3.58,3.58,0,0,0-1.8,3,2.9,2.9,0,0,0,1.26,2.38,4.09,4.09,0,0,0,2.47.78,7.07,7.07,0,0,0,2.43-.46,13.17,13.17,0,0,0,2.1-1,114.18,114.18,0,0,0,15.36-11.5,47.58,47.58,0,0,0,10.3-13.31,3,3,0,0,0,.4-1.47,2.11,2.11,0,0,0-.86-1.71,4.85,4.85,0,0,0-1.69-.83h-.07c-6.53-1.69-12.67-6.41-18.26-14v-.39a2.69,2.69,0,0,0-1.31-2.44,5.18,5.18,0,0,0-2.72-.65Zm3.62,33.39c.07-6.38.15-11.37.22-15.13a31.63,31.63,0,0,0,9.06,5.37,50.94,50.94,0,0,1-9.28,9.76Z"></path>
            <path class="cls-3"
                  d="M205,199.48c-2.91,0-6.37-1.89-6.37-10.87l.08-3.52c0-.2,0-.39,0-.59a19.27,19.27,0,0,1-3.66,3.24,17.82,17.82,0,0,1-6.49,2.75,22.88,22.88,0,0,1-4.13.44,16.91,16.91,0,0,1-11.33-4.06,15.54,15.54,0,0,1-5.38-10.94,19.64,19.64,0,0,1-.09-2.18,38.9,38.9,0,0,1,1.78-11.26A92.17,92.17,0,0,1,174,150.67c4-8.62,8.73-15.28,14.15-19.8a23.74,23.74,0,0,1,5.83-3.6,16.45,16.45,0,0,1,6.51-1.45,11.1,11.1,0,0,1,5.57,1.44,10.51,10.51,0,0,1,4.16,4.56,17.09,17.09,0,0,1,1.82,7.87,24.23,24.23,0,0,1-1.53,8.26,34.7,34.7,0,0,1-3.94,7.68,19.31,19.31,0,0,1-1.54,2c.66-.06,1.3-.08,1.92-.08,5.89,0,7.47,3.22,7.88,5.14l0,.14a11.07,11.07,0,0,1,.19,1.77,17.76,17.76,0,0,1-.58,4.2q-.27,1.69-.34,2.24a58.74,58.74,0,0,0-.43,7.14c0,1.23,0,2.1.06,2.6,0,.67.17,1.66.35,3a25.66,25.66,0,0,1,.48,4.18,10.63,10.63,0,0,1-1.48,5.61,15.88,15.88,0,0,1-3,3.68A7.5,7.5,0,0,1,205,199.48ZM194.7,143a2.94,2.94,0,0,0-1.67.69,18.06,18.06,0,0,0-5.49,7.53A52.13,52.13,0,0,0,184,162.46l-.09.49.31-.26a11.69,11.69,0,0,1,4.73-2.36,39.45,39.45,0,0,1,4.77-.76,5.28,5.28,0,0,1-.75-2.77c0-1.94,1-4,3.08-6.62l.91-1.3a4,4,0,0,0,.51-2,4.44,4.44,0,0,0-1-2.92A2.1,2.1,0,0,0,194.7,143Z"></path>
            <path class="cls-4"
                  d="M200.55,128.83a8.1,8.1,0,0,1,4.09,1.05,7.54,7.54,0,0,1,3,3.3,14.09,14.09,0,0,1,1.5,6.52,21.15,21.15,0,0,1-1.35,7.24,31.54,31.54,0,0,1-3.6,7,20.43,20.43,0,0,1-2.89,3.34,5.16,5.16,0,0,1-3.34,1.76,1.65,1.65,0,0,1-1.42-.75,2.19,2.19,0,0,1-.53-1.5q0-1.8,2.47-4.8l1.05-1.5a7,7,0,0,0,1-3.6,7.45,7.45,0,0,0-1.69-4.8,5.09,5.09,0,0,0-4.09-2.1,5.79,5.79,0,0,0-3.45,1.27q-3.82,2.78-6.45,8.74A54.87,54.87,0,0,0,181,161.9a19.35,19.35,0,0,0-.37,3.45,10.62,10.62,0,0,0,2.77,7.69q2.64,2.74,7.51,2.74h.51a6.78,6.78,0,0,0-1-2.25,3.13,3.13,0,0,0-1.87-.83l-.25,0a5.09,5.09,0,0,0-1.13.17,6.62,6.62,0,0,1-1.39.22q-2.47-.23-2.47-2.17a7.61,7.61,0,0,1,.38-2,8,8,0,0,1,2.44-3.86,8.69,8.69,0,0,1,3.52-1.76,39,39,0,0,1,4.91-.75l2.25-.3q.52-.07,2.55-.52.45-.07,3-.6a23.07,23.07,0,0,1,4.69-.52q4.35,0,4.95,2.77a9.09,9.09,0,0,1,.15,1.28,15.21,15.21,0,0,1-.53,3.6q-.3,1.88-.37,2.48a61.5,61.5,0,0,0-.45,7.5q0,2,.07,2.85.07,1.05.38,3.15a24,24,0,0,1,.45,3.75,7.65,7.65,0,0,1-1,4,13,13,0,0,1-2.47,3,4.62,4.62,0,0,1-3.08,1.46q-3.37,0-3.37-7.87l.08-3.45a92.94,92.94,0,0,1,1.5-13.65,3.56,3.56,0,0,0-2,.45,3.16,3.16,0,0,0-.6,1.58,6.17,6.17,0,0,1-.3,1.8,17.33,17.33,0,0,1-2.7,5.78,16.26,16.26,0,0,1-4.2,4.16,14.77,14.77,0,0,1-5.4,2.29,19.71,19.71,0,0,1-3.52.38,13.93,13.93,0,0,1-9.37-3.34,12.6,12.6,0,0,1-4.35-9,16.65,16.65,0,0,1-.07-1.87,35.75,35.75,0,0,1,1.65-10.39,88.75,88.75,0,0,1,4.42-11.44q5.7-12.37,13.35-18.75a20.65,20.65,0,0,1,5.1-3.15,13.41,13.41,0,0,1,5.32-1.2m0-6a19.41,19.41,0,0,0-7.7,1.69,26.75,26.75,0,0,0-6.58,4.06c-5.75,4.8-10.79,11.81-14.94,20.84a95.12,95.12,0,0,0-4.72,12.21,41.89,41.89,0,0,0-1.91,12.13,22.55,22.55,0,0,0,.1,2.47,18.68,18.68,0,0,0,6.42,12.92,19.83,19.83,0,0,0,13.28,4.78,25.37,25.37,0,0,0,4.62-.48l.11,0a20.78,20.78,0,0,0,6.51-2.53,18.15,18.15,0,0,0,1.26,6,8.69,8.69,0,0,0,8,5.61,10.43,10.43,0,0,0,7.16-3.07,19.06,19.06,0,0,0,3.56-4.39,13.6,13.6,0,0,0,1.88-7.09,28.24,28.24,0,0,0-.52-4.7c-.21-1.49-.29-2.25-.32-2.62v-.09c0-.23-.05-.85-.05-2.34a55.78,55.78,0,0,1,.4-6.77c0-.14.08-.61.31-2a20.48,20.48,0,0,0,.64-4.79,13.72,13.72,0,0,0-.23-2.26q0-.14-.06-.29a9.3,9.3,0,0,0-7.21-7.1,37.52,37.52,0,0,0,2.79-6,27.23,27.23,0,0,0,1.71-9.29,20.1,20.1,0,0,0-2.15-9.24,13.45,13.45,0,0,0-5.34-5.8,14.07,14.07,0,0,0-7.07-1.84ZM188.4,157.38a52.56,52.56,0,0,1,1.89-4.95,16,16,0,0,1,4.12-6,1.74,1.74,0,0,1,.06.49,1,1,0,0,1-.08.43l-.73,1c-2.52,3.1-3.69,5.78-3.69,8.43q0,.13,0,.26-.84.15-1.58.32Z"></path>
            <path class="cls-3"
                  d="M218,190.7a5.06,5.06,0,0,1-5.1-5.33c0-2.74,1.6-6.63,5.17-12.62.23-.44.55-1,1-1.75l1.61-3.07c3.37-6.35,5.85-11.18,7.37-14.37.87-1.83,2.13-4.61,3.87-8.48l2.7-6.07a43.17,43.17,0,0,1,3.58-6.39,14.29,14.29,0,0,1,5.21-4.59,8.09,8.09,0,0,1,3.77-1,5.26,5.26,0,0,1,4.87,3.08,20,20,0,0,1,1.45,4.82c.89,5.1,2.13,10.5,3.7,16.12a136,136,0,0,0,7.1,19l.75,1.49a30.39,30.39,0,0,1,1.7,3.3,8.87,8.87,0,0,1-1.54,9.57,14,14,0,0,1-4.54,3.81,8.1,8.1,0,0,1-4,1,11.3,11.3,0,0,1-6.06-1.85,49.24,49.24,0,0,1-5.64-4.27c-1.33-1.1-2.36-1.9-3-2.34a21.61,21.61,0,0,0-2.76-1.43,51.17,51.17,0,0,1-7-4c-.21-.15-.4-.3-.58-.45l-.7,1.43c-3,6.09-3.52,7-3.7,7.31a19.07,19.07,0,0,1-3.43,4.29C222,189.75,220,190.7,218,190.7ZM240.63,159l-.13-.5-.25.46Z"></path>
            <path class="cls-4"
                  d="M247.2,130a2.26,2.26,0,0,1,2.17,1.39,17.4,17.4,0,0,1,1.2,4.09q1.35,7.73,3.75,16.35a138.49,138.49,0,0,0,7.28,19.42l.83,1.65a28,28,0,0,1,1.57,3,6.39,6.39,0,0,1,.53,2.51,6.49,6.49,0,0,1-1.65,4,10.92,10.92,0,0,1-3.6,3,5.12,5.12,0,0,1-2.55.67,8.32,8.32,0,0,1-4.46-1.39,46.71,46.71,0,0,1-5.29-4q-2.18-1.8-3.3-2.55a25.77,25.77,0,0,0-3.15-1.65,48.54,48.54,0,0,1-6.49-3.75,4.75,4.75,0,0,1-2.29-3.9,5.08,5.08,0,0,1,.53-1.8q-1.43,2.55-4,7.8-3.15,6.38-3.6,7.13a16.25,16.25,0,0,1-2.92,3.64,5.67,5.67,0,0,1-3.75,2,2.16,2.16,0,0,1-1.58-.67,2.25,2.25,0,0,1-.52-1.65q0-3.15,4.8-11.17.3-.6,1-1.72l1.65-3.15q5.1-9.6,7.42-14.47,1.35-2.85,3.9-8.55l2.7-6.08a39.86,39.86,0,0,1,3.3-5.89,11.27,11.27,0,0,1,4.13-3.64,5.16,5.16,0,0,1,2.4-.67m-14.62,36.53q3-4.65,6.83-4.65a7.46,7.46,0,0,1,2.92.6,21.11,21.11,0,0,1,2.7,1.27q-2.25-8.1-3.45-13.8-2.93,5.85-7.72,14.25a25.27,25.27,0,0,1-1.28,2.33M247.2,124a11.07,11.07,0,0,0-5.18,1.36,17.26,17.26,0,0,0-6.27,5.52,46,46,0,0,0-3.81,6.78l0,.11-2.7,6.08c-1.72,3.84-3,6.6-3.84,8.42-1.5,3.14-4,7.94-7.3,14.23l-1.59,3c-.43.71-.75,1.28-1,1.76-3.89,6.52-5.55,10.74-5.55,14.08a8.05,8.05,0,0,0,2.29,5.9A8.18,8.18,0,0,0,218,193.7c2.77,0,5.45-1.25,8-3.71a22.08,22.08,0,0,0,3.93-4.93c.22-.37.69-1.24,3-5.81,1.4.85,3.05,1.75,5,2.71l.13.07a24.3,24.3,0,0,1,2.31,1.17l.06,0c.32.21,1.11.78,2.77,2.16a51.85,51.85,0,0,0,6,4.5,14.25,14.25,0,0,0,7.65,2.3,11.07,11.07,0,0,0,5.36-1.37,17,17,0,0,0,5.48-4.59,11.86,11.86,0,0,0,2-12.61,32.76,32.76,0,0,0-1.82-3.55l-.71-1.41a133.17,133.17,0,0,1-6.91-18.47c-1.53-5.51-2.75-10.8-3.61-15.73l0-.11a22.84,22.84,0,0,0-1.69-5.56A8.27,8.27,0,0,0,247.2,124Z"></path>
            <path class="cls-3"
                  d="M268.72,194.75a5.31,5.31,0,0,1-5.62-5.7,12.34,12.34,0,0,1,1-4.53q0-.14.07-.28l.45-1.42a42.72,42.72,0,0,0,1.1-4.93c.75-3.79,1.44-8,2.08-12.73l1.8-13.12c.54-4.64,1.15-9.24,1.81-13.61a46.64,46.64,0,0,1,1.25-6.43,14.43,14.43,0,0,1,3-5.35,9.82,9.82,0,0,1,2.75-2.25,7.26,7.26,0,0,1,3.51-1,5.63,5.63,0,0,1,5.1,3.05,11.8,11.8,0,0,1,1.11,4.85l.2,1.61c.33,1.76.77,3.72,1.3,5.81q.48,1.94.95,3.67.83-2.21,1.58-4a43.35,43.35,0,0,1,4.39-8.06A17.2,17.2,0,0,1,299.6,127a7.44,7.44,0,0,1,4.75-1.84,5.51,5.51,0,0,1,4.79,2.44,8.82,8.82,0,0,1,1.35,3.31c.14.82.29,2.09.44,3.89.21,2.33.31,5,.31,8.06,0,2.2-.1,5.46-.3,10-.05.92-.1,2-.15,3.35s-.07,2.85-.07,4.61l-.08,5.14c0,1.6,0,4,.15,7.14,0,.06,0,.13,0,.19l-.07,2.4a7.66,7.66,0,0,0,.22,2.16,5.5,5.5,0,0,1,1.73,4.27,9.78,9.78,0,0,1-1.35,4.71,12.42,12.42,0,0,1-3.26,3.84,7.73,7.73,0,0,1-4.76,1.79c-2.61,0-5.94-1.44-7-8.31a36.77,36.77,0,0,1-.34-5.19c0-1,.05-2.41.15-4.31l.07-4.15c0-1.18,0-2.7,0-4.54-.12.26-.24.52-.36.76a11.88,11.88,0,0,1-3.2,3.92,7.5,7.5,0,0,1-4.89,1.94c-1.85,0-4.35-.7-6.43-3.78-.36,2.49-.69,4.63-1,6.4a66.11,66.11,0,0,1-2.4,9.43,30.43,30.43,0,0,1-2.88,6.37A7.22,7.22,0,0,1,268.72,194.75Z"></path>
            <path class="cls-4"
                  d="M281.85,126.43a2.66,2.66,0,0,1,2.47,1.5,9.52,9.52,0,0,1,.75,3.68l.22,1.8q.52,2.78,1.35,6.08a117.38,117.38,0,0,0,3.67,12.45q.6-1.8.75-2.17,2.1-6.15,3.79-10.2a40.06,40.06,0,0,1,4.09-7.5,14.06,14.06,0,0,1,2.55-2.74,4.51,4.51,0,0,1,2.85-1.16,2.53,2.53,0,0,1,2.29,1.09,5.79,5.79,0,0,1,.9,2.18q.19,1.09.41,3.64.3,3.38.3,7.8,0,3.23-.3,9.83-.08,1.35-.15,3.38t-.07,4.72l-.08,5.1q0,2.47.15,7.27l-.07,2.4q0,3.45,1,4.35a2.54,2.54,0,0,1,.9,2.17,6.82,6.82,0,0,1-1,3.26,9.41,9.41,0,0,1-2.47,2.92,4.81,4.81,0,0,1-2.93,1.16q-3.15,0-4-5.78a33.6,33.6,0,0,1-.3-4.72q0-1.35.15-4.2l.07-4.2q0-3.3.15-9.9t.22-13.28q-1.87,5-4.72,13.8a30.81,30.81,0,0,1-1.65,4.2,8.85,8.85,0,0,1-2.4,2.92,4.65,4.65,0,0,1-3,1.28q-2.85,0-4.73-3.83a50.93,50.93,0,0,1-3.22-8.62l-.67,5.55q-1,7.5-1.76,12a62.7,62.7,0,0,1-2.29,9,27.37,27.37,0,0,1-2.59,5.74,4.34,4.34,0,0,1-3.79,2.36q-2.63,0-2.62-2.7a9.89,9.89,0,0,1,1-3.93.23.23,0,0,0,0-.08l0-.1.08-.17-.08.17-.08.18a.09.09,0,0,1-.07,0l.45-1.42a45.32,45.32,0,0,0,1.2-5.33q1.13-5.7,2.1-12.83l1.8-13.12q.82-7,1.8-13.57a44.51,44.51,0,0,1,1.16-6,11.4,11.4,0,0,1,2.36-4.24,6.8,6.8,0,0,1,1.91-1.58,4.29,4.29,0,0,1,2.06-.6m0-6a10.21,10.21,0,0,0-5,1.35,12.81,12.81,0,0,0-3.59,3,17.36,17.36,0,0,0-3.55,6.46,49.58,49.58,0,0,0-1.34,6.84c-.65,4.37-1.26,9-1.81,13.67l-1.79,13.07c-.63,4.63-1.32,8.82-2,12.48l0,.15a39.86,39.86,0,0,1-1,4.57l-.44,1.38-.08.27a15.16,15.16,0,0,0-1.1,5.43,8.29,8.29,0,0,0,8.63,8.7,10.26,10.26,0,0,0,8.89-5.21,33.45,33.45,0,0,0,3.18-7,69,69,0,0,0,2.51-9.86l.19-1.1a10,10,0,0,0,4.29,1,10.12,10.12,0,0,0,5.34-1.57v.54c-.1,1.95-.15,3.39-.15,4.41a39.73,39.73,0,0,0,.36,5.57v.08c1.53,9.79,7.49,10.85,10,10.85a10.65,10.65,0,0,0,6.6-2.42,15.41,15.41,0,0,0,4-4.76,12.72,12.72,0,0,0,1.72-6.17,8.75,8.75,0,0,0-1.92-5.66c0-.2,0-.45,0-.78l.07-2.3q0-.19,0-.37c-.1-3.06-.15-5.43-.15-7l.07-5.06v-.09c0-1.73,0-3.24.07-4.5s.1-2.39.14-3.26V153c.21-4.55.31-7.85.31-10.1,0-3.11-.11-5.91-.32-8.33-.17-1.9-.32-3.21-.47-4.12a11.79,11.79,0,0,0-1.79-4.45,8.54,8.54,0,0,0-7.31-3.8,10.42,10.42,0,0,0-6.64,2.51,20.13,20.13,0,0,0-3.64,3.9l0,.06a45,45,0,0,0-2.69,4.39l-.11-.54L291,131a14.47,14.47,0,0,0-1.43-5.94l0-.08a8.62,8.62,0,0,0-7.73-4.6Z"></path>
            <path class="cls-3"
                  d="M314.77,192.58a4.59,4.59,0,0,1-3.55-1.57,5.64,5.64,0,0,1-1.17-3.83,11.64,11.64,0,0,1,.75-4c.4-1.1,1-2.58,1.85-4.38l.06-.13a26.46,26.46,0,0,0,1.46-3.29c.09-.29.27-.85.75-2.19a14.84,14.84,0,0,0,.66-2.36,1.82,1.82,0,0,0,0-.38h0a2.52,2.52,0,0,0-.07-.4,14.3,14.3,0,0,1-.28-1.56c0-.06,0-.12,0-.17a8.9,8.9,0,0,1,.5-3.56,20.91,20.91,0,0,1,1.4-3,15.44,15.44,0,0,0,1.23-3,65.05,65.05,0,0,0,1.44-9.3l.07-2.29a6,6,0,0,0-.21-2,2.41,2.41,0,0,0-.63-.78l-.08-.08a9.13,9.13,0,0,1-1.73-2.22,6.67,6.67,0,0,1-.72-3.2,9.87,9.87,0,0,1,.89-3.94,14.5,14.5,0,0,1,2-3.36,7.94,7.94,0,0,1,6.45-3.36,10.28,10.28,0,0,1,5.12,1.44,43.51,43.51,0,0,1,4.81,3.3c1.51,1.16,2.28,1.68,2.66,1.92,2.22,1.32,4.12,2.36,5.63,3.06a18.79,18.79,0,0,0,4.4,1.42,10.73,10.73,0,0,0,1.83.17,10.08,10.08,0,0,0,1.85-.17,6.31,6.31,0,0,0,.88-.32,7,7,0,0,1,2.67-.63,4.4,4.4,0,0,1,2.7.9,4.9,4.9,0,0,1,2,4.13,9.14,9.14,0,0,1-1,4,17,17,0,0,1-1.78,3A12.89,12.89,0,0,1,349,155c-.46.08-.94.14-1.43.18a5.39,5.39,0,0,1,1.76,4.2,9.46,9.46,0,0,1-.79,3.63,15,15,0,0,1-1.74,3.09,9.74,9.74,0,0,1-5.3,3.74,26.16,26.16,0,0,1-6.3.78l-2.42.14c-1.71.19-3,.36-3.91.5l-.48.06c-.11.2-.23.39-.35.58a9,9,0,0,0-.67,1.66q-.18.57-.33,1.14c2.24-.35,4.86-.69,7.92-1a135.33,135.33,0,0,1,13.93-.88,31.56,31.56,0,0,1,4.4.25,5.8,5.8,0,0,1,5.43,6,9.48,9.48,0,0,1-.58,3.14,12.11,12.11,0,0,1-1.45,2.85,10.33,10.33,0,0,1-4.6,3.92,17.51,17.51,0,0,1-5.74,1.12c-4,.15-6.88.23-8.63.23-4.76.15-8.17.27-10,.37a40.7,40.7,0,0,0-9.6,1.39l-.1,0A13.26,13.26,0,0,1,314.77,192.58Zm17.7-40.82q-.22,1.71-.5,3.46c1.82-.43,3.4-.78,4.69-1q.66-.13,1.32-.23l-.67-.23C335.82,153.21,334.2,152.55,332.47,151.76Z"></path>
            <path class="cls-4"
                  d="M325.87,131.23a7.29,7.29,0,0,1,3.64,1,41,41,0,0,1,4.46,3.08q1.95,1.5,2.92,2.1,3.52,2.1,5.92,3.23a21.7,21.7,0,0,0,5.1,1.65,13.8,13.8,0,0,0,2.4.23,13,13,0,0,0,2.4-.23,7.91,7.91,0,0,0,1.46-.49,4.55,4.55,0,0,1,1.54-.41,1.4,1.4,0,0,1,.9.3,2,2,0,0,1,.75,1.72,6.17,6.17,0,0,1-.71,2.66,14.27,14.27,0,0,1-1.46,2.44,9.91,9.91,0,0,1-6.6,3.45,16.93,16.93,0,0,1-2.78.22,22.14,22.14,0,0,1-7.5-1.31,73.1,73.1,0,0,1-8.4-3.71,97.67,97.67,0,0,1-1.73,12l2.55-.6q4-1,6.49-1.46a25.81,25.81,0,0,1,4.91-.49,12.34,12.34,0,0,1,1.58.08q2.63.23,2.63,2.63a6.49,6.49,0,0,1-.56,2.47,11.92,11.92,0,0,1-1.39,2.48,6.76,6.76,0,0,1-3.67,2.63,23.59,23.59,0,0,1-5.62.67l-2.55.15q-2.7.3-4.12.52a6.17,6.17,0,0,0-1.76.34,1.59,1.59,0,0,0-.6.71,9.26,9.26,0,0,1-.56,1,11.58,11.58,0,0,0-1,2.33q-.45,1.43-.75,2.85-.45,2.1-.75,3a110.05,110.05,0,0,1,12.26-1.84,131.64,131.64,0,0,1,13.61-.86,29.07,29.07,0,0,1,4,.22q2.85.38,2.85,3a6.47,6.47,0,0,1-.41,2.14,9,9,0,0,1-1.09,2.14,7.41,7.41,0,0,1-3.26,2.85,14.76,14.76,0,0,1-4.76.9q-5.93.23-8.47.22-7.35.23-10.2.38a43.34,43.34,0,0,0-10.27,1.5,12.36,12.36,0,0,1-2.48.45,1.59,1.59,0,0,1-1.27-.52,2.93,2.93,0,0,1-.45-1.87,8.61,8.61,0,0,1,.56-3q.56-1.54,1.76-4.16A28.94,28.94,0,0,0,317,176.3q.15-.52.71-2.1a17.68,17.68,0,0,0,.79-2.85,4.67,4.67,0,0,0,.08-.9,4.89,4.89,0,0,0-.15-1.09,11.32,11.32,0,0,1-.22-1.24,5.88,5.88,0,0,1,.34-2.36,18.32,18.32,0,0,1,1.24-2.66,18.68,18.68,0,0,0,1.5-3.75,67.13,67.13,0,0,0,1.5-9.75l.08-2.33a9,9,0,0,0-.45-3.3,5.33,5.33,0,0,0-1.35-1.8,6.4,6.4,0,0,1-1.2-1.5,3.69,3.69,0,0,1-.37-1.8,6.88,6.88,0,0,1,.64-2.74,11.45,11.45,0,0,1,1.61-2.66,5.08,5.08,0,0,1,4.13-2.25m0-6a11.08,11.08,0,0,0-8.83,4.53,17.52,17.52,0,0,0-2.41,4,12.85,12.85,0,0,0-1.14,5.14,9.64,9.64,0,0,0,1.07,4.6,12,12,0,0,0,2.26,2.94l0,0c0,.18,0,.43,0,.75l-.07,2.18a60.47,60.47,0,0,1-1.37,8.74,17.75,17.75,0,0,1-1,2.25,23.65,23.65,0,0,0-1.56,3.41,11.87,11.87,0,0,0-.67,4.74q0,.17,0,.35a17.26,17.26,0,0,0,.3,1.7,13,13,0,0,1-.48,1.63c-.46,1.29-.66,1.9-.77,2.27A23.64,23.64,0,0,1,310,177.3l-.13.26c-.87,1.9-1.51,3.4-1.94,4.6a14.62,14.62,0,0,0-.93,5,8.6,8.6,0,0,0,1.9,5.79,7.54,7.54,0,0,0,5.82,2.61,16.46,16.46,0,0,0,3.93-.63l.2-.05a37.61,37.61,0,0,1,8.84-1.27h.08c1.84-.1,5.19-.22,10-.37,1.79,0,4.69-.08,8.61-.23h.08a20.4,20.4,0,0,0,6.73-1.34,13.29,13.29,0,0,0,5.94-5,15.08,15.08,0,0,0,1.79-3.52,12.46,12.46,0,0,0,.76-4.14c0-4.78-3.15-8.29-8-8.94a34.69,34.69,0,0,0-4.79-.28h-1.39a14,14,0,0,0,1.71-1.91,18,18,0,0,0,2.11-3.74,12.44,12.44,0,0,0,1-4.78,9.56,9.56,0,0,0-.2-2,15.16,15.16,0,0,0,7.7-5l.1-.13a20,20,0,0,0,2.1-3.47,12.11,12.11,0,0,0,1.32-5.29,8,8,0,0,0-3.16-6.53,7.37,7.37,0,0,0-4.49-1.49,10,10,0,0,0-3.8.85l-.45.17a7,7,0,0,1-1.16.1,7.79,7.79,0,0,1-1.31-.13,15.78,15.78,0,0,1-3.65-1.18c-1.41-.66-3.21-1.64-5.36-2.92-.24-.15-.9-.59-2.38-1.72a46.31,46.31,0,0,0-5.14-3.53,13.24,13.24,0,0,0-6.62-1.84Z"></path>
            <path class="cls-3"
                  d="M395.92,190a13.25,13.25,0,0,1-3-.38l-1.56-.36a67.63,67.63,0,0,0-13.2-1.14c-3.93,0-8.17.2-12.59.58-.44.05-1.05.11-1.84.16s-1.55.08-2.22.08a11.94,11.94,0,0,1-5.73-1.22,6.18,6.18,0,0,1-3.2-5.83,12,12,0,0,1,.68-3.85,36.72,36.72,0,0,1,1.68-4l.65-1.51a16.62,16.62,0,0,1,3-5.09,7.87,7.87,0,0,1,6-2.43,7,7,0,0,1,5.43,2.32,7.71,7.71,0,0,1,1.91,4.77c1.92-.07,4-.11,6.13-.12-2.71-3.44-4.85-6.19-6.41-8.23l-5.14-6.48a27,27,0,0,0-1.8-2.07l-.15-.16a49.11,49.11,0,0,1-4.47-5.88,11.74,11.74,0,0,1-1.88-6.27,7.56,7.56,0,0,1,2.66-5.91,14,14,0,0,1,4.86-2.68,55,55,0,0,1,5.92-1.47l3.06-.66c4-1,8.12-1.92,12.35-2.72l.14,0q.47-.07,1.86-.33a20.75,20.75,0,0,1,5.16-.75,7.81,7.81,0,0,1,5.93,2.29,7.16,7.16,0,0,1,2.17,5,8.44,8.44,0,0,1-1.3,4.4,39,39,0,0,1-3,4.08,19.49,19.49,0,0,0-2.47,3.37,22,22,0,0,1-2.39,4.07,6,6,0,0,1-4.82,2.6,6.12,6.12,0,0,1-3.78-1.37,5.74,5.74,0,0,1-2.22-4.63,7.88,7.88,0,0,1,.13-1.42q-2.07.49-4.6,1.14l5.84,6.71c7.78,8.84,12.68,14.45,14.95,17.13.14.17.52.6,1.68,1.85a19.32,19.32,0,0,1,2.66,3.6,9.05,9.05,0,0,1,1.25,4.43,8.73,8.73,0,0,1-8.4,8.4Z"></path>
            <path class="cls-4"
                  d="M394.27,131.3a4.92,4.92,0,0,1,3.75,1.35,4.26,4.26,0,0,1,1.35,2.92,5.47,5.47,0,0,1-.86,2.85,36.83,36.83,0,0,1-2.74,3.75,22.4,22.4,0,0,0-2.85,4,19,19,0,0,1-2.06,3.53,3.08,3.08,0,0,1-2.44,1.42,3.19,3.19,0,0,1-2-.75,2.71,2.71,0,0,1-1-2.25,5.73,5.73,0,0,1,.49-2.21q.49-1.16,1-2.14c.32-.65.54-1.05.64-1.2q-3.83.68-11.33,2.63-.9.3-3.67,1l9,10.35q11.55,13.13,14.92,17.1.37.45,1.76,2a16.24,16.24,0,0,1,2.25,3,6.07,6.07,0,0,1,.86,3,5.1,5.1,0,0,1-1.35,3.38,5,5,0,0,1-4,2,10.21,10.21,0,0,1-2.33-.3l-1.65-.37a70.27,70.27,0,0,0-13.8-1.2q-6.08,0-12.9.6-.6.07-1.72.15t-2,.08a9.17,9.17,0,0,1-4.31-.86,3.28,3.28,0,0,1-1.61-3.19,9,9,0,0,1,.52-2.89,34.44,34.44,0,0,1,1.58-3.71l.67-1.57a14,14,0,0,1,2.48-4.24,4.94,4.94,0,0,1,3.83-1.46,4,4,0,0,1,3.19,1.31,4.74,4.74,0,0,1,1.16,3.26,6,6,0,0,1-.67,2.7Q373,175,379,175q3.52,0,5.33.08-6.9-8.7-10.28-13.12l-5.17-6.52a29.55,29.55,0,0,0-2-2.33,46.72,46.72,0,0,1-4.2-5.51,8.76,8.76,0,0,1-1.42-4.69,4.57,4.57,0,0,1,1.61-3.64,10.93,10.93,0,0,1,3.83-2.1,51.83,51.83,0,0,1,5.59-1.39l3.15-.68q5.92-1.5,12.22-2.7.52-.07,2.1-.37a17.85,17.85,0,0,1,4.5-.68m0-6a23.25,23.25,0,0,0-5.82.82c-1.19.22-1.54.28-1.62.29l-.28,0c-4.26.81-8.45,1.74-12.47,2.75l-3,.64a56.93,56.93,0,0,0-6.21,1.55,16.94,16.94,0,0,0-5.9,3.26,10.62,10.62,0,0,0-3.7,8.18,14.7,14.7,0,0,0,2.33,7.86,52,52,0,0,0,4.75,6.25l.3.32a23.39,23.39,0,0,1,1.59,1.84l2.4,3a11.2,11.2,0,0,0-2-.18,10.79,10.79,0,0,0-8.24,3.4,19.56,19.56,0,0,0-3.6,6l-.6,1.4a39.38,39.38,0,0,0-1.79,4.26,15,15,0,0,0-.85,4.83,9.23,9.23,0,0,0,4.79,8.48,14.82,14.82,0,0,0,7.14,1.57c.74,0,1.56,0,2.43-.09s1.42-.11,1.94-.17c4.32-.38,8.45-.57,12.28-.57a64.67,64.67,0,0,1,12.61,1.08l1.47.34a16.21,16.21,0,0,0,3.69.46,11.73,11.73,0,0,0,11.4-11.4,12,12,0,0,0-1.63-5.89,22.32,22.32,0,0,0-3.08-4.18c-1.22-1.32-1.51-1.66-1.55-1.71l0-.05c-1.88-2.21-5.53-6.4-11.1-12.75a9.26,9.26,0,0,0,5.71-3.65,25,25,0,0,0,2.71-4.59,20.64,20.64,0,0,1,2-2.71l.06-.07a42,42,0,0,0,3.2-4.41,11.4,11.4,0,0,0,1.73-6,10.13,10.13,0,0,0-3-7,10.74,10.74,0,0,0-8.11-3.23Z"></path>
            <path class="cls-3"
                  d="M211.2,184.18a24,24,0,0,1,.45,3.75,7.65,7.65,0,0,1-1,4,13,13,0,0,1-2.47,3,4.62,4.62,0,0,1-3.08,1.46q-3.37,0-3.37-7.87l.08-3.45a92.94,92.94,0,0,1,1.5-13.65,3.55,3.55,0,0,0-2,.45,3.16,3.16,0,0,0-.6,1.58,6.17,6.17,0,0,1-.3,1.8,17.33,17.33,0,0,1-2.7,5.78,16.26,16.26,0,0,1-4.2,4.16,14.77,14.77,0,0,1-5.4,2.29,19.71,19.71,0,0,1-3.52.38,13.93,13.93,0,0,1-9.37-3.34,12.6,12.6,0,0,1-4.35-9,16.65,16.65,0,0,1-.07-1.87,35.76,35.76,0,0,1,1.65-10.39,88.86,88.86,0,0,1,4.42-11.44q5.7-12.37,13.35-18.75a20.65,20.65,0,0,1,5.1-3.15,13.41,13.41,0,0,1,5.32-1.2,8.1,8.1,0,0,1,4.09,1.05,7.54,7.54,0,0,1,3,3.3,14.09,14.09,0,0,1,1.5,6.52,21.15,21.15,0,0,1-1.35,7.24,31.54,31.54,0,0,1-3.6,7,20.43,20.43,0,0,1-2.89,3.34,5.15,5.15,0,0,1-3.34,1.76,1.64,1.64,0,0,1-1.42-.75,2.18,2.18,0,0,1-.53-1.5q0-1.8,2.47-4.8l1.05-1.5a7,7,0,0,0,1-3.6,7.45,7.45,0,0,0-1.69-4.8,5.08,5.08,0,0,0-4.09-2.1,5.79,5.79,0,0,0-3.45,1.27q-3.82,2.78-6.45,8.74A54.85,54.85,0,0,0,181,161.9a19.35,19.35,0,0,0-.37,3.45,10.62,10.62,0,0,0,2.77,7.69q2.77,2.89,8,2.74a6.78,6.78,0,0,0-1-2.25,3.13,3.13,0,0,0-1.87-.83,3.88,3.88,0,0,0-1.39.15,6.62,6.62,0,0,1-1.39.22q-2.47-.23-2.47-2.17a7.6,7.6,0,0,1,.38-2,8,8,0,0,1,2.44-3.86,8.68,8.68,0,0,1,3.52-1.76,38.82,38.82,0,0,1,4.91-.75l2.25-.3q.52-.07,2.55-.53.45-.07,3-.6a23,23,0,0,1,4.69-.53q4.35,0,4.95,2.78a9.08,9.08,0,0,1,.15,1.28,15.22,15.22,0,0,1-.53,3.6q-.3,1.88-.37,2.47a61.52,61.52,0,0,0-.45,7.5q0,2,.07,2.85Q210.9,182.08,211.2,184.18Z"></path>
            <path class="cls-3"
                  d="M261.6,171.28l.83,1.65a28,28,0,0,1,1.57,3,6.39,6.39,0,0,1,.53,2.51,6.49,6.49,0,0,1-1.65,4,10.92,10.92,0,0,1-3.6,3,5.12,5.12,0,0,1-2.55.67,8.32,8.32,0,0,1-4.46-1.39,46.71,46.71,0,0,1-5.29-4q-2.18-1.8-3.3-2.55a25.77,25.77,0,0,0-3.15-1.65,48.54,48.54,0,0,1-6.49-3.75,4.75,4.75,0,0,1-2.29-3.9,5.07,5.07,0,0,1,.53-1.8q-1.43,2.55-4,7.8-3.15,6.38-3.6,7.13a16.25,16.25,0,0,1-2.92,3.64,5.67,5.67,0,0,1-3.75,2,2.16,2.16,0,0,1-1.58-.67,2.25,2.25,0,0,1-.52-1.65q0-3.15,4.8-11.17.3-.6,1-1.72l1.65-3.15q5.1-9.6,7.42-14.47,1.35-2.85,3.9-8.55l2.7-6.07a39.86,39.86,0,0,1,3.3-5.89,11.27,11.27,0,0,1,4.13-3.64,5.16,5.16,0,0,1,2.4-.67,2.26,2.26,0,0,1,2.17,1.39,17.4,17.4,0,0,1,1.2,4.09q1.35,7.73,3.75,16.35A138.49,138.49,0,0,0,261.6,171.28ZM245,163.78q-2.25-8.1-3.45-13.8-2.93,5.85-7.72,14.25a25.15,25.15,0,0,1-1.28,2.32q3-4.65,6.83-4.65a7.46,7.46,0,0,1,2.92.6A21,21,0,0,1,245,163.78Z"></path>
            <path class="cls-3"
                  d="M309.67,182.08a6.82,6.82,0,0,1-1,3.26,9.41,9.41,0,0,1-2.47,2.92,4.81,4.81,0,0,1-2.93,1.16q-3.15,0-4-5.78a33.6,33.6,0,0,1-.3-4.72q0-1.35.15-4.2l.07-4.2q0-3.3.15-9.9t.22-13.28q-1.87,5-4.72,13.8a30.81,30.81,0,0,1-1.65,4.2,8.86,8.86,0,0,1-2.4,2.92,4.65,4.65,0,0,1-3,1.27q-2.85,0-4.73-3.82a51,51,0,0,1-3.22-8.62l-.67,5.55q-1,7.5-1.76,12a62.7,62.7,0,0,1-2.29,9,27.37,27.37,0,0,1-2.59,5.74,4.34,4.34,0,0,1-3.79,2.36q-2.63,0-2.62-2.7a10.28,10.28,0,0,1,1.13-4.28,2,2,0,0,0-.11.26c0,.08-.06.11-.11.11l.45-1.42a45.32,45.32,0,0,0,1.2-5.33q1.13-5.7,2.1-12.83l1.8-13.12q.82-7,1.8-13.57a44.5,44.5,0,0,1,1.16-6,11.4,11.4,0,0,1,2.36-4.24,6.8,6.8,0,0,1,1.91-1.58,4.29,4.29,0,0,1,2.06-.6,2.66,2.66,0,0,1,2.47,1.5,9.52,9.52,0,0,1,.75,3.68l.22,1.8q.52,2.78,1.35,6.08a117.28,117.28,0,0,0,3.67,12.45q.6-1.8.75-2.17,2.1-6.15,3.79-10.2a40.07,40.07,0,0,1,4.09-7.5,14.06,14.06,0,0,1,2.55-2.74,4.51,4.51,0,0,1,2.85-1.16,2.53,2.53,0,0,1,2.29,1.09,5.79,5.79,0,0,1,.9,2.18q.19,1.09.41,3.64.3,3.38.3,7.8,0,3.23-.3,9.82-.08,1.35-.15,3.38t-.07,4.73l-.08,5.1q0,2.47.15,7.27l-.07,2.4q0,3.45,1,4.35A2.54,2.54,0,0,1,309.67,182.08Z"></path>
            <path class="cls-3"
                  d="M355.72,179a6.47,6.47,0,0,1-.41,2.14,9,9,0,0,1-1.09,2.14,7.41,7.41,0,0,1-3.26,2.85,14.76,14.76,0,0,1-4.76.9q-5.93.23-8.47.22-7.35.23-10.2.38a43.34,43.34,0,0,0-10.27,1.5,12.36,12.36,0,0,1-2.48.45,1.59,1.59,0,0,1-1.27-.52,2.93,2.93,0,0,1-.45-1.87,8.61,8.61,0,0,1,.56-3q.56-1.54,1.76-4.16A28.94,28.94,0,0,0,317,176.3q.15-.52.71-2.1a17.68,17.68,0,0,0,.79-2.85,4.67,4.67,0,0,0,.08-.9,4.91,4.91,0,0,0-.15-1.09,11.27,11.27,0,0,1-.22-1.24,5.88,5.88,0,0,1,.34-2.36,18.27,18.27,0,0,1,1.24-2.66,18.68,18.68,0,0,0,1.5-3.75,67.13,67.13,0,0,0,1.5-9.75l.08-2.33a9,9,0,0,0-.45-3.3,5.33,5.33,0,0,0-1.35-1.8,6.38,6.38,0,0,1-1.2-1.5,3.69,3.69,0,0,1-.37-1.8,6.89,6.89,0,0,1,.64-2.74,11.45,11.45,0,0,1,1.61-2.66,5.08,5.08,0,0,1,4.13-2.25,7.29,7.29,0,0,1,3.64,1,41,41,0,0,1,4.46,3.08q1.95,1.5,2.92,2.1,3.52,2.1,5.92,3.22a21.73,21.73,0,0,0,5.1,1.65,13.79,13.79,0,0,0,2.4.22,13,13,0,0,0,2.4-.22,7.91,7.91,0,0,0,1.46-.49,4.55,4.55,0,0,1,1.54-.41,1.4,1.4,0,0,1,.9.3,2,2,0,0,1,.75,1.72,6.16,6.16,0,0,1-.71,2.66,14.2,14.2,0,0,1-1.46,2.44,9.91,9.91,0,0,1-6.6,3.45,16.93,16.93,0,0,1-2.78.22,22.14,22.14,0,0,1-7.5-1.31,73.27,73.27,0,0,1-8.4-3.71,97.67,97.67,0,0,1-1.73,12l2.55-.6q4-1,6.49-1.46a25.81,25.81,0,0,1,4.91-.49,12.34,12.34,0,0,1,1.58.08q2.63.23,2.63,2.63a6.49,6.49,0,0,1-.56,2.47,11.91,11.91,0,0,1-1.39,2.47,6.75,6.75,0,0,1-3.67,2.63,23.54,23.54,0,0,1-5.62.68l-2.55.15q-2.7.3-4.12.52a6.22,6.22,0,0,0-1.76.34,1.6,1.6,0,0,0-.6.71,9.15,9.15,0,0,1-.56,1,11.62,11.62,0,0,0-1,2.33q-.45,1.43-.75,2.85-.45,2.1-.75,3a110.05,110.05,0,0,1,12.26-1.84,131.64,131.64,0,0,1,13.61-.86,29.07,29.07,0,0,1,4,.22Q355.72,176.38,355.72,179Z"></path>
            <path class="cls-3"
                  d="M398.21,175.55a16.24,16.24,0,0,1,2.25,3,6.07,6.07,0,0,1,.86,3,5.1,5.1,0,0,1-1.35,3.38,5,5,0,0,1-4,2,10.21,10.21,0,0,1-2.33-.3l-1.65-.37a70.27,70.27,0,0,0-13.8-1.2q-6.08,0-12.9.6-.6.07-1.72.15t-2,.08a9.17,9.17,0,0,1-4.31-.86,3.28,3.28,0,0,1-1.61-3.19,9,9,0,0,1,.52-2.89,34.44,34.44,0,0,1,1.58-3.71l.67-1.57a14,14,0,0,1,2.48-4.24,4.94,4.94,0,0,1,3.83-1.46,4,4,0,0,1,3.19,1.31,4.74,4.74,0,0,1,1.16,3.26,6,6,0,0,1-.67,2.7Q373,175,379,175q3.52,0,5.33.08-6.9-8.7-10.28-13.12l-5.17-6.52a29.59,29.59,0,0,0-2-2.33,46.64,46.64,0,0,1-4.2-5.51,8.76,8.76,0,0,1-1.42-4.69,4.57,4.57,0,0,1,1.61-3.64,10.93,10.93,0,0,1,3.83-2.1,51.83,51.83,0,0,1,5.59-1.39l3.15-.68q5.92-1.5,12.22-2.7.52-.07,2.1-.37a17.85,17.85,0,0,1,4.5-.68,4.92,4.92,0,0,1,3.75,1.35,4.26,4.26,0,0,1,1.35,2.92,5.46,5.46,0,0,1-.86,2.85,36.73,36.73,0,0,1-2.74,3.75,22.42,22.42,0,0,0-2.85,4,19,19,0,0,1-2.06,3.52,3.07,3.07,0,0,1-2.44,1.43,3.19,3.19,0,0,1-2-.75,2.71,2.71,0,0,1-1-2.25,5.73,5.73,0,0,1,.49-2.21q.49-1.16,1-2.14t.64-1.2q-3.83.68-11.33,2.63-.9.3-3.67,1l9,10.35q11.55,13.13,14.92,17.1Q396.82,174.05,398.21,175.55Z"></path>
            <g id="Camada_2-3" data-name="Camada 2">
                <g id="Layer_2" data-name="Layer 2">
                    <path class="cls-1"
                          d="M149.84,112.68c4.73-12.19,15.55-29,21.2-40.71a11.76,11.76,0,0,0-2.12-13.31L161,50.5l-8.24-7.2,9.09-7.51a15.12,15.12,0,0,0,5.22-8.16,14.86,14.86,0,0,0-5.77-15.5,13.31,13.31,0,0,0-3.53-1.86,14.86,14.86,0,0,0-14.55,2.51L141,14.6l0-.28A14.86,14.86,0,0,0,121,.94a11.38,11.38,0,0,0-1.89.87,14.9,14.9,0,0,0-7.7,13.46L112,31.65,25,56.89l-.84.36a16.44,16.44,0,0,0-9.49,8.2l-.2.41L1,100.55h.06a15.73,15.73,0,0,0-1,3.91A16,16,0,0,0,7.4,119.88l.54.34,36.6,18.26A63.14,63.14,0,0,0,140.67,208l3.39-2.59a58.34,58.34,0,0,0,19.82-27.46l1.18-3.46a54.68,54.68,0,0,0,2.7-23.13l-.33-3.33a46,46,0,0,0-10.18-24.55L149.53,114A4.9,4.9,0,0,1,149.84,112.68Z"></path>
                    <path class="cls-1"
                          d="M132.86,70,112.65,43.49,32.59,66.7l-2,4-3-.59L19.69,92.52l-6.5,12.89,4.25,5.06,87.78,43.28s6.32-3.88,6.21-4.77S132.86,70,132.86,70Z"></path>
                    <path class="cls-3"
                          d="M118.86,118.93A39.13,39.13,0,1,1,71,136.78L60,130.68a51.79,51.79,0,1,0,63.3-23.61Z"></path>
                    <path class="cls-1"
                          d="M62.4,134.8c-.46.84-11.08,21,.34,42.7a1.4,1.4,0,1,0,2.46-1.34c-10.75-20.36-.5-39.9-.39-40.09a1.39,1.39,0,0,0-2.45-1.29Z"></path>
                    <path class="cls-3"
                          d="M157.37,62.42l-.5-.44h0L132,40.25h0a5.43,5.43,0,0,0-4.65-1.2L84.91,51.44a2.88,2.88,0,0,1-.52.14s-2.75.52-.51,2.2l34.61,18.78a1.63,1.63,0,1,1-1.57,2.87h0l-37-20.09a3,3,0,0,0-3.33,1.38L56.83,92.43s-2.5,4.25,2.28,3.45L60,95.7l59.16-16.85c1-.11,2.85,0,2.36,2.35a.31.31,0,0,0,0,.25l-13.6,65.94c-1.82,4.42-5,1.88-5.26,1.69L55.92,100.74a1.63,1.63,0,0,0-2.74,1.6,1.6,1.6,0,0,0,.39.68L95,145.88h-.1c1.52,1.9.34,1.69-.44,1.43L19.3,109.55l-.07-.09c-1.7-1.1-.7-1.76,0-2l25.08-7.28A1.64,1.64,0,1,0,43.36,97L18,104.33h-.06c-3.19.74-1.76-2.43-1.76-2.43l-.1.13L27,73.89h0v-.12l.26-.67c.47-1,1.56-2.23,3.57,0L47,92.93c.19.19,3.36,3.42,6-.76l19.62-35h0c.94-2.08-.49-2-1.34-1.81L28.85,67.65l-.5.22a5.35,5.35,0,0,0-3.42,2.57L11.62,104.68l.09-.1a4.75,4.75,0,0,0,1.88,5.74l91.85,45.85a3.81,3.81,0,0,0,4.24-1.68c10.44-16.14,42-74.45,48.94-87.27A4.65,4.65,0,0,0,157.37,62.42Z"></path>
                    <path class="cls-3"
                          d="M126.13,11.37a3.42,3.42,0,0,0-3.3,3.53l.55,16.67a3.42,3.42,0,0,0,6.83-.26h0l-.56-16.66A3.42,3.42,0,0,0,126.13,11.37Z"></path>
                    <path class="cls-3"
                          d="M150.53,21.52,136.87,32.83a3.42,3.42,0,0,0,4.34,5.23l13.66-11.27a3.42,3.42,0,1,0-4.36-5.27h0Z"></path>
                </g>
            </g>
        </g>
    </g>
</svg>
